<?xml version="1.0" standalone="no"?>
<!DOCTYPE svg PUBLIC "-//W3C//DTD SVG 20010904//EN"
 "http://www.w3.org/TR/2001/REC-SVG-20010904/DTD/svg10.dtd">
<svg version="1.0" xmlns="http://www.w3.org/2000/svg"
 width="640.000000pt" height="640.000000pt" viewBox="0 0 640.000000 640.000000"
 preserveAspectRatio="xMidYMid meet">
<metadata>
Created by potrace 1.14, written by Peter Selinger 2001-2017
</metadata>
<g transform="translate(0.000000,640.000000) scale(0.100000,-0.100000)"
fill="#000000" stroke="none">
<path d="M4366 4298 c3 -5 10 -6 15 -3 13 9 11 12 -6 12 -8 0 -12 -4 -9 -9z"/>
<path d="M4359 4274 c-1 -2 -2 -7 -4 -11 -7 -27 -19 -43 -32 -43 -8 0 -11 -5
-7 -12 5 -7 3 -8 -6 -3 -10 6 -12 4 -7 -8 6 -16 4 -16 -17 -1 -18 11 -26 12
-32 3 -4 -7 -3 -9 2 -6 6 3 16 2 23 -2 10 -6 10 -13 2 -28 -5 -11 -7 -24 -3
-28 4 -5 2 -5 -5 -1 -6 3 -10 16 -8 28 3 11 1 17 -3 14 -4 -4 -7 -11 -7 -14 0
-4 -4 -13 -9 -21 -6 -9 -5 -12 1 -8 6 4 14 0 17 -9 3 -8 2 -12 -4 -9 -14 9
-12 -9 3 -24 10 -10 8 -11 -8 -5 -17 7 -18 5 -8 -8 7 -8 9 -18 5 -22 -4 -4 -7
-13 -7 -19 0 -7 -6 -12 -14 -12 -8 0 -16 -6 -19 -14 -3 -9 0 -11 9 -5 12 7 12
5 0 -9 -11 -14 -16 -15 -29 -5 -13 11 -14 10 -3 -9 6 -13 7 -23 2 -23 -5 0
-12 6 -14 13 -3 6 -6 2 -6 -11 -1 -13 -5 -20 -11 -17 -6 4 -10 3 -9 -2 1 -4 0
-12 -1 -18 -1 -5 -3 -17 -4 -25 0 -8 -7 -14 -15 -12 -11 2 -12 0 -3 -11 7 -8
8 -18 4 -22 -4 -5 -1 -5 6 -1 7 4 9 12 6 18 -4 6 -3 8 3 5 5 -3 10 -1 11 6 2
29 9 48 21 60 9 8 8 1 -3 -25 -8 -21 -12 -38 -8 -38 3 0 1 -5 -6 -12 -7 -7
-12 -20 -12 -30 0 -10 -5 -18 -11 -18 -5 0 -7 5 -3 12 4 7 3 8 -4 4 -9 -5 -7
-15 5 -34 17 -26 17 -27 -1 -12 -18 14 -19 14 -6 -10 12 -22 12 -24 -3 -12
-13 11 -15 10 -10 -7 3 -12 10 -18 17 -14 6 4 5 -1 -3 -10 -7 -9 -17 -14 -22
-11 -5 3 -17 0 -26 -6 -16 -10 -16 -10 2 -6 11 3 27 1 35 -5 13 -9 12 -10 -2
-5 -12 3 -22 -2 -29 -17 -11 -20 -11 -21 4 -8 10 7 17 9 17 3 0 -16 -26 -22
-40 -9 -10 10 -10 7 -1 -10 7 -13 8 -23 2 -23 -5 0 -12 6 -14 13 -3 7 -6 4 -6
-6 -1 -10 -5 -15 -11 -12 -5 3 -10 1 -10 -5 0 -7 8 -9 20 -5 22 7 25 -2 9 -25
-9 -12 -10 -11 -5 5 6 20 6 20 -9 1 -10 -13 -11 -22 -5 -26 7 -4 6 -11 -4 -19
-11 -9 -16 -9 -22 0 -4 8 -3 9 4 5 7 -4 12 -3 12 2 0 17 -13 22 -28 9 -13 -11
-14 -9 -1 10 9 16 16 19 21 10 4 -7 8 -8 8 -3 0 5 -11 24 -25 41 -13 18 -21
36 -17 40 4 5 3 6 -3 3 -5 -3 -17 1 -25 10 -13 14 -12 15 2 10 13 -5 15 -1 13
20 -2 15 0 32 3 37 10 17 11 36 1 29 -5 -3 -7 -9 -4 -14 3 -5 -5 -14 -17 -21
-20 -11 -21 -10 -10 3 10 12 10 18 -2 28 -22 18 1 54 24 37 10 -8 9 -5 -3 9
-9 11 -14 24 -10 29 5 4 2 5 -5 1 -7 -4 -10 -12 -7 -17 4 -5 1 -9 -4 -9 -6 0
-11 7 -11 16 0 9 -5 12 -12 8 -10 -6 -10 -4 0 7 6 7 12 21 12 32 0 12 -4 16
-12 11 -9 -5 -9 -2 1 9 7 10 9 17 3 17 -9 0 -9 20 -2 40 1 3 2 8 1 13 0 4 3 7
8 7 5 0 8 11 6 25 -2 22 0 23 13 13 13 -11 14 -11 7 1 -12 20 -12 55 -1 63 9
6 2 11 -42 24 -7 2 -10 9 -6 15 4 8 3 9 -5 5 -6 -4 -9 -12 -6 -17 7 -10 -25
-58 -38 -59 -4 0 -3 10 3 23 11 21 10 21 -4 3 -11 -13 -12 -23 -6 -31 5 -7 6
-15 2 -19 -4 -4 -7 -12 -7 -17 0 -5 -3 -9 -7 -9 -5 0 -13 0 -19 0 -5 0 -7 5
-3 12 5 7 3 8 -5 4 -7 -5 -10 -11 -7 -14 3 -3 0 -12 -7 -21 -11 -14 -10 -14 6
-2 12 9 17 10 17 2 0 -7 5 -9 13 -5 6 4 4 -2 -6 -14 -11 -11 -16 -25 -12 -31
4 -7 0 -8 -10 -5 -12 5 -13 9 -4 20 14 17 2 18 -15 1 -14 -14 -10 -40 6 -31 5
3 4 -3 -3 -15 -9 -14 -16 -17 -20 -9 -4 7 -6 15 -3 19 2 4 0 10 -5 13 -5 4 -8
-5 -7 -18 3 -20 -4 -28 -29 -41 -39 -18 -55 -19 -55 -3 0 6 -3 8 -6 5 -4 -4
-1 -14 7 -24 12 -14 12 -16 -1 -11 -11 4 -16 -1 -17 -14 -2 -17 0 -18 15 -6
15 11 15 10 -1 -8 -9 -11 -14 -23 -11 -27 4 -4 -1 -18 -10 -31 -10 -16 -12
-27 -6 -31 6 -4 8 -11 4 -16 -3 -5 -9 -7 -14 -4 -5 3 -11 1 -15 -5 -3 -5 -2
-10 4 -10 5 0 9 -9 8 -19 0 -11 -5 -17 -9 -15 -5 3 -5 10 -2 16 4 7 2 8 -4 4
-8 -5 -8 -15 -2 -32 8 -19 6 -26 -5 -31 -13 -4 -13 -8 -3 -21 11 -13 10 -14
-9 -4 -18 10 -21 9 -18 -6 1 -9 -2 -23 -8 -30 -7 -9 -6 -11 5 -7 11 5 14 -3
14 -34 -1 -22 -5 -43 -9 -47 -4 -5 -5 -1 -2 8 4 9 2 19 -3 22 -5 3 -7 -10 -5
-31 4 -33 3 -35 -14 -22 -17 13 -17 13 -4 -4 14 -18 15 -18 28 -1 12 16 13 14
9 -14 -2 -18 1 -35 5 -38 5 -3 7 -10 3 -15 -3 -5 -10 -7 -15 -3 -5 3 -7 10 -4
15 4 5 -2 6 -11 2 -11 -4 -13 -8 -6 -11 7 -2 12 -10 12 -18 0 -9 4 -13 9 -10
5 3 12 -1 15 -10 4 -10 2 -13 -6 -8 -8 5 -9 2 -5 -9 3 -9 2 -19 -2 -21 -5 -3
-9 -16 -9 -28 0 -13 -9 -39 -19 -58 -16 -27 -26 -34 -44 -32 -15 1 -19 -1 -12
-6 8 -5 13 -37 15 -82 1 -41 6 -78 11 -81 4 -3 9 -12 10 -20 2 -8 7 -21 12
-29 8 -13 6 -13 -8 -2 -9 8 -21 11 -26 8 -12 -8 -3 -36 11 -36 6 0 4 8 -3 18
-11 14 -10 14 9 -2 17 -15 19 -22 11 -33 -6 -7 -8 -13 -4 -13 5 0 0 -10 -11
-22 -10 -12 -14 -18 -8 -15 14 8 28 -20 15 -28 -5 -3 -7 -15 -4 -28 4 -18 3
-19 -6 -7 -6 8 -11 10 -11 4 0 -6 8 -18 17 -25 10 -8 14 -9 10 -2 -4 6 -4 14
1 17 4 2 8 -16 7 -40 0 -25 2 -47 6 -50 4 -2 5 -13 2 -24 -3 -11 -1 -20 5 -20
6 0 13 -8 15 -17 4 -16 5 -16 6 1 1 12 6 16 17 12 8 -3 12 -2 9 3 -3 5 -1 12
4 16 6 3 8 12 5 19 -3 8 0 17 5 21 6 3 9 11 5 16 -3 6 2 17 12 24 13 10 15 14
5 15 -10 0 -11 3 -2 13 6 8 7 18 3 22 -4 5 -1 5 6 1 6 -4 12 -2 12 4 0 6 5 8
10 5 6 -4 7 -12 4 -18 -4 -7 -3 -8 1 -4 13 11 15 38 3 31 -6 -4 -9 9 -7 32 1
22 -3 49 -10 62 -6 12 -9 22 -5 22 3 0 0 8 -7 17 -9 11 -1 8 21 -7 19 -13 29
-17 22 -8 -7 9 -9 18 -5 20 4 3 3 3 -4 2 -7 -2 -15 1 -18 6 -4 6 1 10 10 10 9
0 13 5 10 10 -4 6 -10 8 -15 5 -5 -3 -11 -1 -15 4 -3 6 4 8 16 6 15 -3 19 0
15 11 -4 11 1 13 19 10 29 -5 31 -3 8 15 -14 12 -16 12 -8 0 5 -10 4 -12 -4
-7 -17 11 -2 29 20 23 10 -3 22 0 26 5 3 6 1 8 -5 4 -6 -3 -13 -2 -17 4 -4 6
-11 7 -17 4 -7 -4 -8 -2 -4 5 4 6 13 8 19 4 7 -4 6 0 -2 10 -15 19 -1 23 17 5
9 -9 12 -9 12 0 0 7 -5 12 -11 12 -5 0 -8 4 -4 9 3 5 0 13 -6 17 -8 5 -9 3 -4
-6 6 -9 4 -11 -5 -5 -10 6 -7 12 11 26 20 15 22 20 10 31 -12 11 -13 10 -7 -6
6 -16 4 -17 -9 -6 -12 10 -13 15 -4 20 6 5 8 13 4 20 -5 8 -4 11 3 6 8 -4 10
3 7 25 -3 23 0 29 10 25 8 -3 17 0 21 6 4 7 3 8 -4 4 -8 -5 -12 0 -12 13 0 12
-4 21 -9 21 -10 0 -9 19 2 38 5 6 5 17 1 24 -4 6 -3 8 3 5 7 -4 10 5 9 25 -1
35 15 44 44 24 9 -7 8 -2 -3 11 -12 14 -15 23 -8 28 6 3 11 0 11 -7 0 -10 3
-9 9 2 13 19 2 34 -14 20 -8 -7 -19 -9 -26 -5 -8 6 -8 2 0 -14 9 -17 9 -20 -3
-15 -14 5 -16 27 -3 40 12 12 8 26 -5 18 -9 -5 -9 -2 1 9 11 13 11 17 1 17 -8
0 -11 2 -8 5 12 13 38 -8 33 -26 -5 -14 -2 -17 9 -13 8 3 12 13 9 22 -4 13 -3
14 5 3 5 -7 12 -9 14 -5 3 5 3 4 2 -3 -2 -6 8 -19 22 -27 13 -9 24 -22 24 -29
0 -6 -5 -4 -11 6 -5 9 -14 17 -18 17 -14 0 -21 -29 -9 -36 7 -4 8 -3 4 4 -4 7
-2 12 3 12 17 0 13 -21 -6 -37 -13 -11 -10 -10 9 1 25 15 27 15 21 -1 -5 -12
-3 -14 7 -8 9 5 11 4 6 -4 -4 -6 -11 -9 -15 -7 -4 3 -8 -4 -8 -15 -1 -10 3
-19 8 -19 6 0 7 5 4 10 -3 6 -2 10 4 10 5 0 13 -4 16 -10 3 -5 1 -10 -4 -10
-6 0 -11 -7 -11 -16 0 -8 4 -13 9 -10 5 3 14 -1 20 -8 8 -10 9 -16 1 -21 -10
-6 -14 1 -11 18 1 5 -3 6 -9 2 -14 -9 9 -38 25 -31 7 2 11 -8 10 -30 -1 -19 3
-34 8 -34 6 0 8 -3 5 -6 -4 -3 -16 -1 -27 6 -31 16 -25 3 7 -15 15 -9 19 -14
10 -11 -9 3 -22 -2 -29 -10 -10 -12 -10 -15 2 -12 8 2 13 -2 12 -9 -2 -7 4
-10 12 -7 8 4 15 1 15 -5 0 -6 -8 -11 -17 -12 -14 0 -13 -2 5 -9 12 -5 22 -14
22 -19 0 -5 3 -17 7 -27 4 -12 3 -15 -5 -10 -7 4 -10 2 -7 -6 3 -7 15 -19 26
-26 12 -8 19 -10 16 -5 -3 5 -1 15 5 23 8 13 9 12 5 -1 -3 -9 -1 -21 5 -27 6
-6 6 -12 -3 -17 -7 -5 -10 -4 -6 1 3 5 -3 10 -14 10 -19 0 -19 -1 -4 -12 9 -7
23 -10 31 -7 8 3 14 2 13 -3 -3 -21 2 -47 8 -40 4 3 13 -4 20 -16 7 -13 12
-18 13 -11 0 6 8 10 19 8 14 -3 18 1 14 16 -3 11 0 19 6 19 7 0 9 -5 5 -12 -5
-7 -3 -8 5 -4 7 5 10 11 7 14 -3 3 0 12 7 21 10 14 10 14 -3 4 -14 -10 -16 -7
-16 27 0 40 5 47 10 13 2 -10 6 -17 9 -15 4 1 10 2 13 2 4 0 1 7 -6 15 -7 8
-9 15 -6 15 4 0 2 10 -5 21 -9 17 -8 20 2 14 9 -6 11 -3 6 8 -3 9 -2 19 4 23
6 3 8 12 5 20 -3 7 -1 16 5 19 5 4 7 10 4 15 -3 5 -2 11 3 14 5 3 8 25 7 50 0
24 2 44 5 44 26 -2 32 3 20 17 -11 13 -10 14 6 8 17 -6 18 -5 4 13 -14 18 -14
18 6 2 30 -26 37 -22 18 10 l-16 27 21 -25 c11 -14 21 -39 21 -57 0 -18 4 -33
9 -33 4 0 8 -21 7 -47 -1 -32 4 -52 14 -60 12 -9 9 -10 -13 -6 -15 3 -24 10
-20 16 3 6 1 7 -6 3 -14 -9 -5 -26 13 -26 8 0 20 -8 27 -17 8 -9 9 -14 3 -10
-7 4 -14 -2 -17 -14 -5 -17 -3 -18 10 -8 12 11 14 10 12 -2 -2 -7 3 -25 10
-38 8 -14 9 -21 2 -17 -6 4 -11 0 -11 -9 0 -9 4 -14 9 -11 5 3 15 -2 22 -11 8
-9 10 -14 4 -11 -5 3 -15 0 -22 -7 -10 -10 -9 -14 3 -19 8 -3 13 -2 10 2 -2 4
5 8 17 9 12 0 16 -1 10 -4 -16 -6 -17 -33 -2 -33 6 0 3 -7 -5 -16 -17 -17 -22
-39 -7 -30 5 4 8 -6 6 -21 -1 -15 5 -35 15 -46 19 -20 16 -52 -3 -40 -6 4 -7
1 -3 -6 5 -7 14 -10 21 -8 8 4 12 -3 11 -16 -1 -13 4 -21 12 -19 8 1 11 -2 7
-8 -5 -8 -11 -7 -21 1 -8 6 -17 10 -20 7 -2 -3 7 -13 21 -22 14 -9 24 -20 21
-24 -3 -5 -1 -14 4 -22 8 -13 11 -13 22 -1 11 12 10 13 -2 6 -8 -5 -12 -4 -7
0 4 5 0 17 -10 27 -9 11 -11 18 -5 18 7 0 12 -5 12 -11 0 -5 6 -7 13 -3 6 4 9
4 5 -1 -4 -4 -3 -14 4 -22 6 -7 8 -16 5 -20 -4 -3 5 -14 18 -25 14 -11 22 -24
19 -30 -4 -7 -2 -8 5 -4 9 6 9 11 0 22 -10 12 -9 13 5 8 10 -4 18 0 22 10 3 9
11 13 16 10 6 -4 5 3 -2 16 -6 12 -9 28 -6 35 3 8 1 17 -4 20 -7 4 -7 13 0 24
6 13 5 24 -5 37 -8 11 -15 14 -15 9 0 -6 5 -16 11 -22 8 -8 7 -13 -3 -18 -7
-5 -10 -4 -5 0 4 5 0 17 -10 27 -16 17 -9 24 20 19 11 -2 8 9 -7 24 -8 8 -13
31 -11 59 1 31 -2 43 -9 39 -6 -4 -5 1 3 10 7 9 10 17 6 17 -5 0 0 9 10 20 11
12 25 18 34 15 13 -5 13 -4 4 6 -10 10 -15 9 -27 -1 -13 -10 -17 -9 -22 5 -7
17 -8 17 -19 1 -11 -14 -13 -13 -11 13 0 20 4 27 12 20 6 -5 14 -6 17 -2 4 3
0 11 -8 17 -12 9 -11 13 3 26 14 13 15 12 9 -3 -4 -12 -1 -20 11 -24 9 -4 23
-16 31 -26 14 -19 15 -19 28 -2 10 15 13 15 13 4 0 -8 -6 -21 -12 -29 -10 -11
-9 -11 6 0 18 14 19 13 13 -2 -3 -10 -2 -20 3 -23 5 -3 7 9 5 27 -2 18 -1 27
2 20 2 -6 9 -10 14 -7 5 4 6 -2 2 -11 -5 -14 -2 -16 20 -10 17 4 27 2 27 -4 0
-6 -4 -8 -10 -5 -5 3 -10 1 -10 -4 0 -14 13 -14 28 1 14 14 65 21 57 7 -4 -5
-1 -9 4 -9 6 0 11 7 11 15 0 8 5 15 10 15 6 0 10 -6 10 -14 0 -8 4 -17 9 -21
6 -3 6 6 1 25 -5 18 -5 30 1 30 5 0 9 -4 9 -10 0 -11 34 -9 38 3 5 16 1 19
-13 7 -12 -10 -15 -9 -15 5 0 10 3 15 6 12 4 -3 16 -1 28 5 11 7 25 11 30 10
5 -2 6 3 3 11 -3 7 1 14 8 14 10 0 11 -5 4 -19 -6 -11 -6 -18 0 -18 5 0 11 6
14 13 3 6 5 3 5 -8 1 -35 11 -88 19 -96 5 -4 18 -3 31 2 16 6 22 17 22 37 0
16 3 32 8 36 7 7 8 11 11 37 0 6 8 8 16 5 9 -3 18 1 21 9 4 8 11 15 16 15 7 0
6 -5 -1 -13 -6 -8 -7 -18 -3 -22 4 -5 1 -5 -7 0 -10 6 -12 4 -6 -5 6 -10 11
-9 22 6 12 16 13 15 7 -13 -5 -28 -4 -32 14 -30 12 1 18 6 15 15 -5 11 -7 11
-14 0 -5 -7 -9 -8 -9 -3 0 6 4 16 9 24 7 11 10 9 16 -8 3 -11 12 -21 18 -22 7
0 -1 -7 -18 -14 -23 -11 -26 -14 -10 -15 17 0 18 -2 5 -10 -11 -8 -8 -9 12 -4
24 5 27 3 23 -15 -2 -12 1 -21 7 -21 5 0 8 -6 5 -13 -3 -7 1 -21 9 -32 17 -22
18 -45 3 -45 -5 0 -8 4 -5 9 9 14 -4 41 -19 41 -8 0 -17 -5 -20 -11 -4 -6 0
-9 11 -7 13 2 19 -3 19 -17 0 -11 8 -21 18 -23 16 -3 22 -14 18 -35 -1 -5 3
-6 9 -2 6 4 18 1 27 -7 12 -9 15 -9 9 0 -4 7 -1 12 8 12 9 0 16 7 16 15 0 8 4
15 8 15 5 0 9 -7 9 -15 0 -8 -4 -15 -8 -15 -5 0 -13 -10 -19 -22 -10 -21 -10
-21 3 -5 15 18 43 24 32 7 -4 -6 -3 -10 2 -9 19 3 33 -2 33 -12 0 -5 -4 -7
-10 -4 -6 3 -7 -1 -3 -10 5 -13 7 -14 14 -3 6 10 12 9 24 -7 12 -16 14 -17 9
-2 -3 9 -1 17 5 17 6 0 11 7 11 15 0 8 4 15 10 15 5 0 7 -8 4 -17 -5 -15 -4
-15 4 -3 7 9 8 18 1 26 -7 8 -6 14 1 19 5 3 10 1 10 -6 0 -7 3 -10 6 -6 3 3 2
11 -2 18 -12 20 -14 59 -3 59 6 0 7 -6 4 -12 -4 -7 0 -5 8 4 8 10 16 16 19 13
2 -3 5 2 5 10 0 11 -4 12 -13 4 -15 -12 -37 -3 -28 12 3 5 10 7 15 4 5 -4 9 6
9 20 0 14 4 24 8 21 4 -2 14 0 22 6 12 8 12 9 -2 4 -11 -3 -18 0 -18 7 -1 7
-7 1 -15 -13 l-14 -25 4 30 c1 17 8 29 14 28 6 -2 16 -4 22 -5 6 -2 12 7 14
19 1 12 -1 21 -4 19 -3 -2 -12 2 -19 10 -7 8 -9 14 -4 14 5 0 8 16 7 36 -2 22
2 37 10 41 8 2 11 12 8 20 -4 10 -2 14 5 9 6 -3 14 -1 18 5 4 8 3 9 -4 5 -7
-4 -12 -2 -12 5 0 8 -5 7 -17 -2 -16 -13 -17 -12 -5 3 9 11 23 15 40 12 19 -3
23 -2 13 5 -15 9 -6 35 9 26 5 -3 18 -1 28 4 14 7 19 6 19 -4 0 -7 -6 -11 -13
-8 -6 2 -15 0 -19 -6 -3 -7 0 -8 9 -5 9 3 16 1 16 -5 0 -8 4 -8 14 1 7 7 11
20 9 28 -4 13 -3 13 5 1 13 -19 72 -23 91 -8 12 9 13 9 7 0 -4 -7 -2 -13 3
-13 6 0 11 -8 11 -17 -1 -16 -2 -16 -15 1 -8 11 -15 15 -15 9 0 -6 6 -16 14
-22 10 -8 16 -8 25 2 6 8 8 17 4 20 -3 4 -1 7 6 7 9 0 11 -6 6 -17 -12 -32
-14 -52 -5 -58 5 -3 7 3 5 15 -2 11 -1 21 3 24 4 2 8 -11 9 -29 1 -28 -1 -33
-15 -28 -9 3 -14 3 -11 -1 4 -4 17 -9 29 -11 12 -2 25 -7 29 -11 3 -4 -2 -4
-12 -1 -13 5 -17 3 -14 -5 2 -7 10 -12 16 -10 7 1 10 -2 6 -8 -3 -5 -1 -18 4
-28 7 -13 7 -22 -2 -31 -8 -8 -6 -15 11 -27 20 -14 22 -41 2 -29 -5 3 -12 0
-16 -6 -4 -8 -3 -9 4 -5 7 4 12 2 12 -4 0 -6 6 -8 13 -4 9 5 9 4 0 -6 -6 -7
-9 -19 -6 -26 3 -8 -1 -14 -11 -14 -9 0 -16 5 -16 12 0 6 -2 9 -5 6 -10 -10 7
-38 19 -31 6 4 5 -1 -3 -10 -7 -9 -11 -23 -8 -32 4 -8 2 -17 -4 -21 -6 -3 -8
-12 -5 -20 3 -8 0 -11 -10 -7 -18 7 -18 22 1 29 8 4 12 10 9 16 -3 5 -12 1
-18 -9 -17 -24 -28 -55 -18 -49 4 2 14 0 22 -5 12 -7 11 -8 -5 -6 -11 1 -26 6
-33 11 -11 7 -12 4 -3 -13 10 -17 9 -20 -5 -14 -11 4 -22 -1 -31 -13 -7 -10
-21 -19 -31 -19 -9 0 -16 -6 -14 -12 2 -12 -10 -17 -30 -14 -5 0 -8 -3 -8 -9
0 -13 6 -13 31 1 11 5 17 14 14 20 -4 5 -2 9 4 9 17 0 21 -18 5 -24 -9 -3 -12
-11 -8 -18 4 -7 4 -10 -1 -6 -4 4 -15 3 -25 -2 -10 -5 -20 -6 -24 -3 -10 11
-37 12 -30 2 3 -5 9 -7 14 -4 5 3 11 1 15 -5 4 -6 12 -8 18 -4 7 3 1 -4 -13
-15 -14 -11 -21 -21 -16 -21 5 0 3 -7 -4 -15 -7 -8 -10 -21 -7 -29 4 -11 1
-13 -11 -9 -15 6 -15 5 -3 -11 12 -15 12 -17 0 -14 -8 2 -17 8 -21 13 -5 6 -8
5 -8 -3 0 -7 7 -15 15 -18 8 -4 15 -11 15 -16 0 -6 -12 -2 -27 7 l-28 18 25
-29 25 -28 -27 17 c-16 10 -28 13 -28 7 0 -5 4 -10 9 -10 5 0 11 -7 15 -15 5
-13 2 -14 -17 -4 -21 12 -21 11 -7 -6 14 -17 14 -18 -10 -5 -24 13 -24 12 -10
-5 14 -17 13 -18 -7 -13 -12 3 -22 3 -21 -1 2 -20 -4 -22 -18 -5 -14 18 -15
18 -4 -3 7 -16 7 -23 0 -23 -5 0 -10 -5 -10 -12 0 -6 12 -1 27 13 14 13 23 19
20 12 -4 -6 -2 -14 3 -16 6 -3 5 -4 -2 -3 -13 3 -43 -22 -43 -35 0 -4 -4 -11
-9 -16 -5 -5 -6 -3 -2 5 4 6 2 12 -4 12 -6 0 -8 5 -4 13 5 8 2 7 -9 -2 -14
-11 -15 -17 -6 -28 9 -11 9 -17 -1 -26 -9 -9 -11 -9 -6 0 3 6 2 14 -3 17 -14
9 -21 -20 -8 -35 7 -8 1 -4 -13 8 -24 21 -26 21 -26 3 0 -10 4 -17 7 -14 4 2
11 -1 15 -7 4 -7 3 -9 -3 -6 -6 4 -16 0 -23 -7 -6 -8 -25 -18 -41 -21 -16 -4
-27 -11 -23 -16 3 -5 1 -9 -5 -9 -5 0 -11 5 -13 12 -3 8 -7 6 -11 -5 -3 -9 -1
-19 5 -23 7 -5 8 -2 3 6 -5 9 -4 11 4 6 9 -6 9 -11 0 -22 -6 -7 -15 -11 -20
-8 -5 3 -9 -2 -9 -10 0 -9 -4 -16 -9 -16 -11 0 -9 -66 3 -77 5 -5 6 -3 2 5 -7
11 0 12 30 8 26 -4 34 -3 24 3 -8 5 -18 7 -24 4 -5 -3 -6 -2 -3 3 7 12 48 11
67 -1 8 -5 11 -4 6 3 -3 5 -1 12 6 14 7 3 5 7 -6 11 -9 4 -15 3 -12 -1 2 -4
-4 -8 -15 -8 -19 0 -19 1 -3 13 10 7 22 13 27 13 4 0 5 5 1 12 -4 7 -3 8 5 4
6 -4 9 -12 6 -17 -3 -5 2 -6 11 -2 11 4 15 3 11 -4 -8 -13 19 -11 30 2 4 4 3
5 -3 2 -14 -8 -40 20 -30 31 12 11 90 12 97 0 4 -5 9 -3 12 7 5 10 3 14 -4 9
-7 -4 -10 -1 -7 7 6 15 10 15 43 4 11 -4 16 -3 10 2 -5 4 -11 14 -13 22 -3 12
0 12 12 2 11 -9 16 -9 22 0 4 8 3 9 -4 5 -7 -4 -12 -2 -12 5 0 7 10 9 25 7 20
-4 23 -2 15 12 -7 13 -5 22 5 30 8 7 15 9 15 4 0 -4 6 0 13 11 11 14 16 15 22
5 5 -9 4 -11 -3 -6 -7 4 -12 2 -12 -3 0 -16 9 -14 37 9 14 11 21 20 16 20 -5
0 -14 -5 -20 -11 -7 -7 -12 -6 -16 5 -4 9 -1 15 6 13 7 -1 11 4 9 12 -2 11 0
12 10 4 10 -8 20 -7 38 3 22 13 22 14 3 9 -27 -7 -35 5 -18 29 9 11 22 17 34
13 16 -4 19 0 15 25 -3 27 -1 28 13 16 15 -12 15 -11 4 10 -11 20 -8 26 10 24
7 -1 23 46 21 58 0 3 8 7 19 7 11 1 19 -5 20 -15 0 -11 2 -12 6 -4 3 7 -1 19
-7 27 -10 12 -9 15 9 15 15 0 20 -4 15 -12 -4 -8 -3 -10 2 -5 5 5 9 12 9 15 0
4 4 13 9 20 7 12 4 12 -14 2 -12 -6 -24 -9 -28 -6 -3 3 0 6 7 6 7 0 10 4 7 8
-10 16 38 10 52 -6 8 -9 6 -4 -3 12 -9 16 -12 25 -6 22 6 -4 11 -2 11 3 0 6 4
11 10 11 5 0 7 -6 4 -14 -3 -8 0 -17 7 -22 8 -5 10 -3 4 5 -4 8 2 21 15 33 12
11 19 26 16 34 -3 8 1 14 9 14 9 0 12 -8 9 -27 -3 -20 -2 -24 5 -13 5 8 7 18
5 22 -3 5 2 11 10 14 9 3 16 10 16 16 0 5 -4 7 -9 3 -5 -3 -12 -1 -16 5 -3 5
1 10 9 10 9 0 16 5 16 11 0 5 -5 7 -12 3 -7 -4 -8 -3 -4 5 4 6 12 9 17 6 5 -4
12 1 15 9 3 9 10 13 15 10 5 -3 9 0 9 5 0 6 6 10 13 9 6 -2 11 2 10 7 -1 6 15
9 35 9 20 -1 46 2 56 6 17 6 18 7 3 13 -9 3 -17 3 -17 -1 0 -4 -9 -8 -19 -9
-23 -2 -18 23 4 25 8 1 22 3 30 4 11 1 12 5 3 15 -6 7 -8 16 -4 20 3 3 6 1 6
-5 0 -7 5 -12 10 -12 6 0 10 9 10 19 0 10 7 22 16 25 10 4 13 2 7 -7 -10 -16
-14 -41 -5 -32 4 4 7 12 7 18 0 7 9 11 20 10 18 -1 18 0 -4 18 -20 16 -21 19
-5 16 11 -1 25 -7 33 -11 10 -6 12 -5 7 3 -4 6 -1 22 8 35 16 25 56 30 86 11
13 -8 13 -7 0 10 -14 17 -13 18 6 13 13 -3 21 0 21 7 0 10 -7 11 -23 5 -12 -5
-25 -6 -28 -3 -3 4 -6 1 -6 -6 0 -7 -5 -9 -11 -6 -15 10 21 34 40 27 9 -3 12
-1 7 7 -5 7 -2 10 6 9 7 -2 12 3 10 10 -1 8 2 11 8 7 6 -3 7 -11 4 -17 -4 -7
-2 -8 4 -4 7 4 12 2 12 -5 0 -7 3 -10 6 -6 3 3 2 13 -4 23 -9 17 12 54 31 54
5 0 1 -7 -7 -16 -9 -8 -16 -21 -16 -27 0 -7 5 -4 11 6 6 9 14 15 19 12 5 -3 7
4 5 16 -3 13 0 28 5 34 5 6 7 20 5 30 -2 11 -4 23 -4 28 -1 4 -10 -2 -21 -13
-10 -10 -28 -17 -40 -15 -11 2 -20 -1 -20 -6 0 -6 -9 -5 -22 2 -22 12 -22 11
-8 -7 8 -10 11 -16 6 -12 -4 4 -19 -6 -33 -22 -13 -16 -27 -29 -31 -28 -15 3
-61 -22 -71 -39 -7 -12 -10 -14 -11 -4 0 12 -3 11 -17 -1 -10 -9 -28 -14 -41
-12 -16 3 -21 0 -16 -8 4 -6 3 -8 -4 -4 -6 3 -15 -2 -21 -11 -6 -10 -11 -13
-11 -8 0 6 7 20 15 32 11 16 12 24 4 29 -7 4 -9 3 -6 -3 4 -6 -6 -21 -21 -34
-14 -13 -20 -16 -13 -6 13 16 12 18 -12 13 -20 -3 -25 -1 -20 11 5 12 3 14 -7
8 -8 -5 -11 -4 -6 3 3 6 2 13 -4 17 -7 4 -6 14 2 28 10 19 9 21 -4 9 -13 -10
-18 -10 -24 -1 -5 8 -3 9 5 4 9 -5 12 -2 9 11 -2 11 -11 18 -19 16 -11 -3 -12
-1 -1 9 6 7 12 21 12 31 0 16 3 17 23 8 21 -11 21 -10 3 4 -10 9 -23 13 -27
10 -5 -3 -9 0 -9 5 0 6 4 11 10 11 5 0 6 7 3 17 -4 10 -2 14 4 10 5 -3 10 0
10 8 0 8 -4 12 -8 9 -4 -2 -15 3 -24 13 -16 16 -16 17 1 30 22 16 11 17 -19 2
-12 -7 -19 -8 -15 -4 4 5 2 15 -5 24 -10 14 -10 14 4 3 14 -10 18 -10 23 3 3
9 2 13 -4 10 -6 -3 -10 -1 -10 5 0 6 -4 8 -10 5 -14 -8 -13 8 1 22 9 9 7 10
-10 6 -22 -6 -29 11 -9 23 7 4 8 3 4 -4 -5 -8 -1 -10 9 -5 13 5 14 7 3 14 -10
7 -10 9 2 9 10 0 7 5 -8 16 -12 8 -20 19 -17 23 2 5 -2 17 -10 27 -11 13 -15
15 -13 4 2 -8 8 -19 13 -23 6 -5 4 -7 -5 -4 -8 2 -15 8 -15 13 -1 5 -8 23 -17
40 -12 21 -14 34 -7 41 8 8 7 13 -2 18 -8 5 -10 4 -5 -3 4 -7 2 -12 -3 -12 -6
0 -11 4 -11 9 0 15 -35 19 -48 4 -7 -7 -9 -13 -4 -13 6 0 9 -13 8 -29 0 -16
-5 -27 -10 -24 -5 4 -6 -5 -2 -21 4 -16 2 -26 -4 -26 -6 0 -9 4 -5 9 3 5 0 13
-6 17 -8 5 -9 3 -4 -6 6 -10 4 -12 -11 -6 -18 7 -18 6 1 -12 11 -11 24 -17 29
-14 5 3 6 0 2 -7 -6 -9 -11 -9 -22 0 -12 10 -13 9 -8 -6 5 -11 4 -16 -3 -12
-5 3 -10 0 -10 -8 0 -11 4 -12 13 -4 10 8 12 6 11 -10 -1 -24 -2 -24 -26 -11
-15 8 -18 5 -15 -15 1 -14 -2 -27 -7 -31 -9 -5 -12 6 -10 36 0 10 -1 11 -5 2
-3 -6 -11 -9 -17 -5 -9 5 -9 3 0 -8 9 -11 7 -14 -11 -14 -13 0 -23 6 -23 13 0
6 4 12 9 12 5 0 6 5 2 11 -4 8 -12 3 -21 -12 -10 -19 -13 -20 -11 -5 2 12 -4
20 -15 22 -13 2 -15 -1 -8 -10 7 -8 6 -17 -1 -26 -8 -12 -9 -12 -4 3 5 17 -3
21 -34 18 -11 -1 -11 1 3 9 9 6 17 15 17 20 0 6 -8 10 -17 10 -16 0 -16 -2 -3
-11 13 -9 12 -10 -2 -5 -10 3 -18 1 -18 -4 0 -6 -5 -10 -11 -10 -8 0 -8 4 0
13 6 8 9 34 7 60 -1 25 0 44 4 42 4 -3 13 2 20 10 10 12 9 16 -4 21 -12 5 -14
10 -6 19 6 7 10 17 9 21 -4 23 3 33 21 29 12 -2 18 0 15 6 -4 5 -11 7 -16 4
-12 -8 -25 25 -13 34 5 3 9 13 9 21 -1 8 2 20 7 26 5 7 3 16 -5 22 -11 9 -13
5 -13 -20 1 -18 -4 -32 -12 -34 -7 -1 -8 0 -2 3 7 3 4 10 -7 19 -14 11 -15 13
-2 8 12 -4 16 1 15 18 0 13 4 22 10 21 6 -1 10 15 10 40 l-1 42 -49 0 c-32 0
-50 -5 -52 -13 -1 -7 0 -8 3 -2 7 15 23 12 23 -5 0 -8 -5 -15 -11 -15 -6 0 -8
-8 -5 -17 6 -16 5 -17 -7 -2 -11 15 -14 15 -24 -6 -7 -17 -7 -27 1 -36 8 -9 6
-10 -9 -5 -18 5 -18 5 -4 -7 15 -11 15 -15 3 -31 -10 -15 -17 -16 -27 -8 -11
9 -13 5 -13 -21 1 -18 -4 -32 -11 -32 -6 0 -15 -3 -19 -7 -3 -4 3 -6 14 -3 22
4 38 -20 21 -31 -6 -4 -6 -11 2 -20 9 -11 9 -14 0 -14 -7 0 -9 -4 -6 -10 3 -5
1 -10 -4 -10 -6 0 -10 -6 -8 -12 1 -7 -3 -12 -10 -11 -6 1 -14 -5 -17 -13 -4
-12 -2 -15 9 -11 8 4 17 1 21 -6 4 -7 4 -9 0 -5 -5 4 -20 2 -34 -3 -15 -6 -23
-7 -19 -3 4 4 -1 16 -10 27 -10 10 -18 22 -18 26 0 3 -3 5 -7 4 -8 -3 -2 32 8
50 5 7 0 6 -11 -3 -17 -14 -18 -14 -7 7 8 14 9 24 2 28 -6 4 -8 9 -6 13 4 7
-19 11 -76 15 -15 1 -30 7 -32 13 -5 14 12 13 34 -1 13 -7 13 -6 2 7 -7 9 -21
15 -30 13 -9 -2 -21 -4 -27 -4 -5 -1 -4 -5 3 -10 11 -7 10 -9 -3 -14 -9 -4
-13 -3 -10 3 3 6 1 10 -5 10 -6 0 -8 5 -4 12 4 7 3 8 -5 4 -6 -4 -9 -11 -6
-16 3 -5 1 -11 -5 -15 -5 -3 -10 -2 -10 3 0 15 -31 23 -45 12 -6 -5 -14 -7
-18 -4 -3 3 -3 -5 0 -18 3 -12 2 -19 -2 -15 -8 7 -15 28 -17 54 -1 8 -8 7 -23
-3 -12 -8 -24 -12 -27 -9 -3 3 -3 -6 0 -21 4 -21 2 -25 -9 -19 -12 8 -12 6 0
-8 12 -15 11 -17 -3 -17 -15 0 -21 12 -17 33 1 5 -3 6 -9 2 -7 -4 -7 -12 0
-24 9 -18 4 -31 -12 -31 -5 0 -6 6 -2 13 4 6 4 9 -1 5 -4 -4 -14 -3 -22 4 -11
9 -13 8 -11 -3 2 -8 -3 -13 -10 -11 -8 1 -11 -2 -7 -8 3 -6 11 -8 16 -5 5 4 9
0 9 -7 0 -10 2 -10 9 1 6 9 11 10 15 2 9 -15 27 -14 23 1 -1 6 7 13 18 15 l20
3 -20 -9 c-14 -7 -15 -10 -5 -11 12 0 11 -3 -3 -11 -9 -6 -15 -16 -11 -22 3
-7 -1 -4 -9 6 -15 19 -32 24 -21 6 3 -6 -11 1 -33 15 -22 15 -50 29 -63 31
-12 2 -25 7 -29 10 -7 8 45 -1 59 -10 5 -3 7 0 5 8 -4 8 -19 13 -38 12 -18 -1
-37 3 -44 8 -7 5 -18 7 -25 4 -9 -4 -7 -6 3 -6 24 -1 31 -27 8 -28 -11 -1 -17
2 -14 8 4 5 1 9 -4 9 -6 0 -11 -5 -11 -11 0 -5 -6 -7 -12 -3 -9 6 -9 3 0 -9
12 -15 11 -16 -18 -12 -26 3 -29 1 -20 -10 12 -15 6 -35 -10 -35 -5 0 -7 7 -4
15 4 8 1 15 -6 15 -6 0 -9 -4 -6 -8 7 -11 -30 -42 -40 -34 -4 4 -4 1 0 -6 6
-9 11 -10 20 -3 7 6 17 7 21 3 5 -4 5 -1 0 7 -6 10 -4 12 4 6 9 -5 10 -10 2
-18 -18 -18 -44 -17 -66 1 -18 15 -18 15 -7 0 8 -10 9 -18 3 -22 -14 -9 -29
24 -25 54 1 14 0 19 -3 12 -2 -7 -14 -17 -25 -23 -20 -11 -20 -10 -4 12 20 29
21 46 2 30 -12 -10 -13 -8 -9 10 5 17 3 20 -7 14 -9 -6 -11 -4 -5 6 5 7 10 24
11 37 2 21 1 22 -14 10 -15 -12 -16 -11 -3 4 11 15 11 19 -3 24 -15 6 -15 8 1
21 10 8 13 12 6 9 -15 -8 -27 10 -13 19 8 5 7 12 -2 23 -10 12 -10 14 0 8 7
-4 12 -1 12 9 0 9 -4 14 -9 11 -11 -7 -8 21 4 31 4 4 5 3 2 -3 -3 -6 0 -11 7
-11 7 0 13 6 13 13 0 7 -5 10 -10 7 -6 -4 -7 5 -3 23 l6 29 -15 -27 c-9 -16
-17 -28 -19 -28 -1 0 -2 16 -1 35 1 20 -3 35 -9 35 -6 0 -5 4 2 9 11 7 10 9
-3 15 -18 6 -12 26 8 26 7 0 6 -4 -3 -10 -9 -6 -10 -10 -3 -10 16 0 26 17 13
25 -6 4 -8 11 -5 16 4 5 2 9 -4 9 -5 0 -12 -6 -14 -12 -5 -13 -2 35 5 62 2 9
-3 14 -12 12 -11 -3 -11 1 3 16 18 19 23 37 9 28 -5 -3 -9 1 -9 9 0 8 5 13 11
12 6 -1 10 6 8 16 -2 9 2 17 8 17 6 0 8 -4 5 -10 -11 -17 0 -11 18 11 18 20
18 21 -5 13 -19 -6 -21 -5 -11 8 7 8 11 24 9 35 -3 12 1 20 10 20 11 0 11 -4
2 -16 -10 -13 -10 -14 2 -3 15 13 23 65 8 56 -4 -3 -8 -1 -8 5 0 18 19 22 28
5 8 -15 10 -14 16 2 4 10 4 15 0 11 -10 -10 -34 12 -34 32 0 14 2 14 11 1 9
-13 10 -13 6 0 -3 12 -64 25 -68 14z m985 -542 c3 -5 -1 -9 -9 -9 -8 0 -12 4
-9 9 3 4 7 8 9 8 2 0 6 -4 9 -8z m-1374 -12 c0 -5 -4 -10 -10 -10 -5 0 -10 5
-10 10 0 6 5 10 10 10 6 0 10 -4 10 -10z m30 -90 c7 -13 5 -21 -4 -30 -12 -9
-14 -7 -11 7 1 10 -5 26 -13 36 -15 16 -14 17 1 11 10 -3 22 -14 27 -24z
m1300 -15 c-5 -6 -8 -15 -5 -18 3 -4 2 -5 -2 -2 -4 3 -8 17 -9 30 -1 20 2 23
13 14 9 -8 10 -15 3 -24z m-327 9 c11 -11 -3 -24 -18 -18 -8 4 -12 10 -9 15 6
11 18 12 27 3z m192 -43 c3 -5 2 -12 -3 -15 -5 -3 -9 1 -9 9 0 17 3 19 12 6z
m-1141 -50 c-2 -3 -12 3 -22 13 -16 17 -16 18 5 5 12 -7 20 -15 17 -18z m202
4 c-1 -8 -5 -17 -8 -21 -5 -4 -4 16 1 34 3 9 9 -1 7 -13z m211 -50 c0 -8 -6
-16 -14 -19 -11 -4 -11 -1 -3 14 13 24 17 25 17 5z m-191 -19 c0 -14 -3 -23
-7 -20 -6 3 -6 22 0 42 3 10 7 -2 7 -22z m584 18 c0 -8 -19 -13 -24 -6 -3 5 1
9 9 9 8 0 15 -2 15 -3z m-374 -39 c6 -14 8 -13 19 1 8 12 14 14 19 5 4 -6 0
-14 -8 -17 -9 -3 -16 -10 -16 -16 0 -5 5 -6 12 -2 7 5 8 3 3 -6 -6 -10 -11 -9
-21 5 -7 10 -15 23 -17 29 -3 7 -9 7 -20 -3 -10 -7 -17 -9 -17 -3 0 10 15 19
33 21 4 1 10 -6 13 -14z m1323 -19 c9 -11 8 -15 -4 -20 -10 -4 -14 -2 -9 5 4
6 0 15 -7 20 -8 5 -9 9 -3 9 6 0 17 -6 23 -14z m-1534 -5 c-9 -8 -36 -10 -30
-2 2 4 11 8 20 8 8 0 13 -3 10 -6z m201 -17 c1 -9 0 -13 -4 -10 -3 4 -7 14 -8
22 -1 9 0 13 4 10 3 -4 7 -14 8 -22z m-222 -20 c3 -8 2 -12 -4 -9 -6 3 -10 10
-10 16 0 14 7 11 14 -7z m226 -18 c0 -2 -7 -7 -16 -10 -8 -3 -12 -2 -9 4 6 10
25 14 25 6z m1160 -6 c0 -5 -5 -10 -11 -10 -5 0 -7 5 -4 10 3 6 8 10 11 10 2
0 4 -4 4 -10z m7 -42 c-3 -8 -6 -5 -6 6 -1 11 2 17 5 13 3 -3 4 -12 1 -19z
m-453 -23 c10 -8 23 -12 29 -8 6 4 7 1 2 -7 -6 -9 -1 -10 16 -5 19 5 21 4 9
-4 -12 -9 -13 -11 -1 -11 8 0 11 -3 8 -6 -4 -4 -18 1 -31 10 -20 12 -24 13
-20 2 3 -8 14 -16 25 -19 13 -3 17 -11 13 -21 -3 -9 -1 -16 6 -16 6 0 8 5 5
10 -3 6 0 10 8 10 7 0 14 -7 14 -15 0 -8 -4 -12 -8 -9 -4 2 -10 0 -14 -6 -3
-5 1 -10 9 -10 9 0 16 -5 16 -11 0 -6 -10 -8 -22 -5 -13 3 -17 3 -9 0 11 -5
11 -8 0 -16 -11 -8 -10 -9 4 -4 9 3 17 1 17 -4 0 -6 -4 -10 -10 -10 -5 0 -7
-6 -4 -14 3 -8 1 -17 -5 -20 -6 -4 -7 -14 -4 -24 6 -15 5 -16 -12 -2 -11 9
-16 10 -11 3 4 -7 3 -13 -2 -13 -17 0 -21 13 -10 34 8 16 8 18 -1 10 -13 -12
-24 -57 -12 -49 5 2 7 -9 6 -25 -1 -16 1 -27 6 -24 5 3 6 -2 3 -10 -4 -10 1
-18 10 -22 12 -4 14 -10 6 -19 -7 -8 -5 -12 5 -12 8 0 11 5 8 10 -4 6 -1 7 7
2 9 -5 11 -4 6 3 -5 8 -1 10 11 6 15 -6 15 -4 -2 9 -11 8 -17 19 -13 23 4 4 2
14 -5 22 -9 12 -9 14 0 9 8 -5 11 -1 8 12 -3 15 0 18 13 14 11 -5 12 -8 4 -11
-10 -3 -10 -7 0 -20 10 -12 10 -16 1 -19 -7 -3 -13 -9 -13 -14 0 -6 5 -7 10
-4 6 3 10 3 11 -2 6 -47 4 -61 -5 -57 -7 3 -12 -5 -13 -17 -2 -17 1 -18 13 -9
25 22 15 2 -13 -26 l-28 -26 25 6 c14 3 19 3 13 0 -7 -3 -13 -12 -13 -20 0 -8
6 -14 13 -15 8 0 8 -2 -2 -6 -11 -5 -11 -7 0 -15 11 -8 11 -9 -1 -5 -8 2 -14
10 -12 16 1 6 -3 11 -9 11 -5 0 -7 5 -4 10 3 6 -1 13 -9 16 -9 3 -16 13 -16
21 0 8 -5 11 -12 7 -7 -4 -8 -3 -4 4 4 7 4 18 -1 25 -12 18 -12 67 0 60 7 -4
8 1 2 13 -4 10 -8 29 -8 42 -1 12 -5 22 -10 22 -5 0 -7 7 -3 15 3 8 0 15 -7
16 -9 0 -8 2 1 6 10 4 10 8 1 19 -6 8 -15 11 -20 8 -5 -3 -6 3 -2 12 5 13 3
15 -8 9 -12 -8 -12 -6 0 9 9 10 11 20 5 24 -13 10 -17 35 -4 27 5 -3 10 -1 10
4 0 10 -14 15 -33 12 -4 -1 -4 11 -1 26 7 26 6 27 -12 13 -18 -14 -18 -14 -3
5 9 11 19 27 22 35 4 12 6 12 6 -1 1 -27 51 -33 51 -7 0 7 -5 6 -14 -1 -10 -8
-16 -9 -21 -1 -4 6 -3 10 2 9 20 -3 27 2 13 11 -8 5 -10 10 -5 10 6 -1 19 -7
29 -15z m-518 -15 c5 1 9 -3 11 -10 1 -6 -1 -6 -3 -1 -3 5 -16 7 -30 5 -22 -4
-23 -2 -12 10 8 8 15 10 19 4 3 -5 10 -9 15 -8z m-56 -14 c0 -3 -4 -8 -10 -11
-5 -3 -10 -1 -10 4 0 6 5 11 10 11 6 0 10 -2 10 -4z m50 -16 c13 -9 13 -11 0
-20 -8 -5 -19 -10 -25 -10 -5 0 -3 4 5 10 8 5 11 12 7 16 -3 4 -13 1 -22 -6
-9 -7 -15 -8 -15 -2 0 9 14 19 30 21 3 0 12 -4 20 -9z m978 -25 c-3 -3 -9 2
-12 12 -6 14 -5 15 5 6 7 -7 10 -15 7 -18z m-1693 -33 c-3 -3 -11 0 -18 7 -9
10 -8 11 6 5 10 -3 15 -9 12 -12z m530 8 c-3 -5 -12 -10 -18 -10 -7 0 -6 4 3
10 19 12 23 12 15 0z m-10 -58 c2 -12 1 -24 -3 -26 -4 -2 -8 9 -8 25 -2 33 4
33 11 1z m795 -42 c-14 -9 -7 -15 15 -10 6 1 4 -4 -3 -12 -11 -11 -14 -10 -22
2 -10 16 -4 30 13 30 7 0 6 -4 -3 -10z m-1270 -20 c0 -5 -2 -10 -4 -10 -3 0
-8 5 -11 10 -3 6 -1 10 4 10 6 0 11 -4 11 -10z m1240 -30 c-8 -5 -9 -13 -4
-21 13 -22 12 -48 -3 -42 -17 6 -17 23 0 23 8 0 7 3 -3 10 -8 5 -15 15 -15 22
-1 16 16 29 28 21 5 -3 4 -9 -3 -13z m-686 -16 c3 -8 2 -12 -4 -9 -6 3 -10 10
-10 16 0 14 7 11 14 -7z m850 -20 c6 -15 4 -15 -11 -3 -10 7 -20 15 -22 16 -2
2 3 3 11 3 9 0 19 -7 22 -16z m-913 -38 c-6 -7 -8 -16 -4 -19 3 -4 4 -7 1 -7
-3 0 -12 8 -19 17 -10 11 -10 14 -1 9 7 -4 12 -1 12 9 0 9 5 13 10 10 8 -5 8
-11 1 -19z m-911 -156 c0 -5 -2 -10 -4 -10 -3 0 -8 5 -11 10 -3 6 -1 10 4 10
6 0 11 -4 11 -10z m2230 -145 c-7 -8 -17 -12 -23 -8 -6 4 -3 9 9 14 27 11 28
11 14 -6z m-485 -455 c3 -6 -1 -7 -9 -4 -18 7 -21 14 -7 14 6 0 13 -4 16 -10z"/>
<path d="M5100 3266 c0 -2 8 -10 18 -17 15 -13 16 -12 3 4 -13 16 -21 21 -21
13z"/>
<path d="M5175 3220 c-3 -5 -1 -10 4 -10 6 0 11 5 11 10 0 6 -2 10 -4 10 -3 0
-8 -4 -11 -10z"/>
<path d="M5139 3188 c0 -2 -2 -13 -3 -25 -2 -15 2 -19 13 -15 14 5 14 3 3 -10
-9 -11 -10 -18 -2 -23 5 -3 10 -5 11 -3 6 27 5 39 -7 49 -8 6 -11 15 -8 20 3
5 3 9 0 9 -3 0 -6 -1 -7 -2z"/>
<path d="M5176 2962 c-8 -13 -1 -43 13 -51 7 -5 12 -11 12 -15 -3 -24 0 -28
14 -16 12 10 13 15 4 20 -8 6 -8 9 0 14 6 4 9 11 6 16 -3 5 3 13 12 19 10 6
13 11 6 11 -6 0 -14 -4 -17 -9 -8 -13 -42 -6 -38 8 2 13 -5 15 -12 3z m38 -43
c-3 -5 -10 -7 -15 -3 -5 3 -7 10 -3 15 3 5 10 7 15 3 5 -3 7 -10 3 -15z"/>
<path d="M4330 4249 c0 -5 -3 -8 -7 -6 -5 3 -17 -5 -28 -15 -20 -20 -20 -20
12 -4 34 17 51 36 34 36 -6 0 -11 -5 -11 -11z"/>
<path d="M538 4228 c10 -12 10 -18 -2 -27 -11 -10 -17 -7 -30 11 -9 12 -16 16
-16 9 0 -11 -3 -11 -17 0 -15 13 -15 12 -5 -8 16 -28 -7 -37 -39 -15 l-24 16
20 -24 20 -23 -25 13 c-22 12 -24 11 -13 -2 15 -18 7 -29 -15 -21 -10 4 -13 2
-8 -5 5 -8 0 -12 -13 -12 -10 0 -21 -5 -23 -11 -2 -7 -11 -5 -23 7 -16 17 -18
17 -12 2 3 -10 2 -20 -2 -23 -11 -6 -25 24 -22 45 3 18 -2 13 -18 -17 -10 -19
-9 -22 4 -17 10 4 15 0 15 -12 0 -16 -2 -17 -10 -4 -5 8 -10 11 -10 6 0 -5 -7
-3 -15 4 -9 7 -18 10 -22 6 -3 -3 -1 -6 5 -6 7 0 12 -5 12 -11 0 -5 -4 -8 -9
-5 -14 9 -42 -5 -35 -18 3 -6 -2 -2 -10 8 -16 19 -16 19 -16 -1 0 -24 -14 -36
-45 -40 -11 -2 -22 -8 -23 -13 -2 -6 -7 -8 -12 -5 -17 10 -2 -76 16 -97 10
-12 13 -18 7 -14 -7 4 -13 2 -13 -3 0 -6 4 -11 9 -11 12 0 5 -41 -8 -49 -5 -3
-2 -12 6 -20 12 -11 14 -10 11 4 -2 10 4 20 12 22 9 3 11 1 5 -4 -6 -4 -10
-29 -10 -55 0 -25 -3 -44 -7 -42 -3 2 -10 -1 -14 -7 -4 -7 -3 -9 3 -6 6 4 19
0 29 -8 18 -14 17 -15 -11 -9 l-30 6 29 -16 c15 -9 33 -13 40 -9 6 3 1 -4 -11
-16 -30 -28 -29 -36 1 -16 24 16 24 16 20 -20 -2 -20 1 -33 6 -30 6 4 7 -1 3
-11 -5 -13 -3 -15 7 -9 10 6 11 4 4 -6 -11 -18 -12 -33 -1 -40 5 -3 2 -9 -6
-12 -11 -4 -14 2 -12 24 1 16 0 31 -4 33 -4 3 -6 -20 -6 -49 0 -29 2 -52 5
-50 14 8 33 -15 34 -41 1 -16 5 -35 10 -43 6 -10 5 -12 -2 -7 -7 4 -12 2 -12
-3 0 -6 3 -11 8 -11 4 0 13 -10 20 -21 11 -17 11 -24 1 -33 -8 -7 -10 -7 -6 0
4 6 0 20 -8 30 -8 10 -15 14 -15 7 0 -6 5 -15 10 -18 8 -5 8 -11 0 -20 -8 -10
-4 -18 20 -35 16 -12 28 -26 25 -30 -3 -5 1 -24 10 -41 9 -17 13 -29 8 -26 -5
3 -13 -6 -20 -19 -7 -16 -8 -22 0 -17 6 4 8 0 4 -10 -3 -9 -2 -19 3 -22 4 -3
7 6 5 20 -1 14 1 28 5 30 9 6 6 -77 -4 -93 -4 -7 -2 -12 4 -12 6 0 8 -5 5 -10
-4 -6 -12 -7 -19 -3 -7 4 -1 -2 13 -14 23 -20 40 -60 20 -47 -5 3 -7 9 -4 14
3 5 0 12 -7 16 -7 4 -10 4 -6 -1 4 -4 2 -15 -5 -23 -10 -13 -9 -14 2 -8 9 6
12 4 9 -5 -3 -8 -10 -14 -15 -14 -6 0 -14 -2 -17 -5 -3 -4 5 -6 19 -6 13 0 21
4 19 8 -3 4 0 8 6 8 7 0 9 -8 5 -21 -5 -16 -4 -19 5 -14 9 5 11 4 6 -4 -6 -9
-11 -9 -22 0 -8 6 -17 9 -21 5 -3 -3 -1 -6 5 -6 7 0 12 -7 12 -15 0 -8 -5 -15
-12 -15 -6 0 -8 -3 -5 -6 4 -4 13 -1 22 6 20 17 19 1 -2 -22 -16 -18 -16 -18
3 -12 17 7 18 6 4 -11 -9 -11 -10 -16 -3 -11 8 4 13 1 14 -8 3 -33 4 -37 16
-44 7 -5 10 -19 7 -37 -5 -26 -3 -27 12 -14 13 10 16 10 10 1 -4 -7 -2 -19 4
-27 7 -8 9 -15 4 -15 -5 0 0 -7 10 -15 11 -8 15 -15 10 -15 -5 0 -10 -9 -11
-20 -1 -13 2 -18 9 -14 7 4 8 2 4 -4 -4 -6 -14 -8 -23 -5 -15 6 -16 5 -3 -9 8
-9 20 -13 25 -10 6 3 3 -2 -5 -13 -14 -17 -13 -17 10 -11 17 5 20 4 12 -2 -11
-8 -11 -10 1 -15 10 -4 14 -17 13 -36 -1 -16 1 -28 5 -25 4 2 10 -4 14 -15 3
-10 15 -21 26 -24 12 -3 18 -3 15 0 -3 4 -1 12 5 20 6 7 9 21 7 31 -3 10 1 27
8 37 8 10 14 14 14 8 0 -6 7 -13 14 -16 11 -4 13 -1 9 11 -4 9 -11 20 -17 24
-7 5 -7 8 2 8 6 0 12 7 12 16 0 9 10 25 22 35 11 11 17 19 12 19 -6 0 -15 -5
-21 -11 -7 -7 -12 -6 -17 6 -3 9 -2 13 4 10 6 -3 10 3 10 15 0 13 4 19 12 14
7 -4 8 -3 4 5 -6 9 -11 9 -22 0 -8 -6 -17 -9 -21 -5 -3 3 -1 6 5 6 7 0 9 20 7
55 -3 40 -1 54 7 49 7 -5 8 -3 4 5 -5 7 -14 10 -22 7 -8 -3 -13 -2 -13 2 1 4
0 10 -1 15 -1 4 -3 13 -4 20 -1 6 -8 11 -15 9 -7 -1 -10 2 -6 8 3 6 10 8 14 5
5 -2 9 7 9 21 0 15 6 30 13 35 8 5 9 9 3 9 -6 0 -19 -10 -28 -22 l-17 -23 13
25 c7 14 11 29 10 33 -1 5 2 6 8 2 5 -3 10 1 10 10 0 10 5 13 12 9 7 -4 8 -3
4 5 -6 9 -11 9 -24 -1 -14 -11 -15 -10 -9 5 4 10 3 26 -2 36 -7 13 -6 18 4 18
8 0 11 -5 8 -11 -4 -6 0 -5 9 1 8 7 19 9 24 5 5 -4 5 -3 1 3 -8 10 -12 11 -39
14 -6 0 -8 4 -5 8 4 3 1 13 -6 21 -9 13 -9 14 1 8 6 -4 12 -2 12 3 0 6 7 11
16 11 8 0 13 4 9 9 -3 5 -1 13 5 16 6 4 10 3 9 -2 -3 -18 2 -33 11 -33 5 0 7
6 4 13 -3 8 3 13 15 13 15 0 17 -3 9 -13 -7 -9 -7 -13 0 -13 6 0 12 -6 15 -12
2 -7 3 -6 2 3 -1 9 3 16 10 16 7 0 12 -7 10 -16 -3 -19 14 -55 22 -47 3 3 11
-2 18 -11 9 -13 14 -13 20 -3 5 8 4 11 -2 7 -6 -4 -14 0 -17 9 -3 8 -10 13
-15 10 -5 -3 -11 1 -15 9 -8 22 11 18 35 -6 14 -14 30 -20 48 -17 24 4 27 1
25 -19 -1 -13 2 -21 7 -17 5 3 6 11 2 17 -4 7 0 6 10 -2 13 -11 17 -11 17 -1
0 8 3 10 7 6 5 -4 1 -13 -8 -19 -15 -11 -14 -14 7 -30 16 -12 25 -14 30 -5 5
7 3 8 -6 3 -9 -6 -11 -4 -5 5 6 10 12 7 26 -11 10 -13 19 -28 19 -33 0 -6 -6
-2 -12 7 -10 13 -17 14 -28 6 -13 -9 -12 -10 2 -5 11 3 19 -2 23 -15 7 -20 7
-20 21 -2 9 13 13 14 14 4 0 -10 3 -11 14 -2 16 13 32 -2 21 -19 -3 -5 3 -10
13 -10 11 0 26 -8 33 -17 10 -11 10 -14 2 -9 -7 4 -13 3 -13 -3 0 -11 39 -27
55 -22 6 1 7 -1 3 -5 -12 -12 12 -33 30 -27 14 4 15 3 2 -6 -11 -7 -20 -5 -36
10 -17 16 -24 18 -30 7 -4 -7 -3 -10 1 -5 13 12 57 -34 45 -48 -7 -8 -5 -12 5
-12 8 0 12 4 9 9 -3 4 1 8 8 8 9 0 9 3 -2 10 -8 5 -10 10 -4 10 20 0 39 -32
37 -64 -1 -20 0 -23 4 -8 4 19 6 20 19 8 16 -17 19 -30 4 -21 -18 11 -11 -4
14 -28 21 -21 24 -22 23 -7 -1 10 -5 16 -11 13 -5 -4 -6 -1 -1 7 6 9 4 11 -5
5 -9 -6 -11 -4 -5 4 5 9 10 10 18 2 16 -16 19 -54 5 -63 -9 -5 -10 -8 -1 -8 6
0 15 5 18 10 3 6 12 10 18 10 8 0 8 -3 -1 -9 -11 -7 -10 -13 8 -29 15 -14 18
-22 10 -27 -8 -5 -4 -11 12 -19 16 -9 22 -20 21 -37 -2 -21 -1 -22 8 -6 10 16
12 16 29 -5 19 -23 19 -23 35 -3 9 11 14 14 10 8 -9 -18 0 -16 16 4 8 9 9 14
3 10 -7 -4 -14 4 -17 20 -5 27 -5 27 10 8 16 -20 16 -20 8 0 -4 11 -9 31 -10
43 -2 13 -7 27 -11 30 -4 4 -4 -2 0 -13 5 -15 4 -17 -5 -8 -6 6 -8 17 -3 25
12 19 14 39 3 32 -5 -3 -9 0 -9 5 0 6 -5 11 -12 11 -6 0 -4 -8 6 -19 17 -19
17 -19 -1 -17 -11 2 -18 11 -18 25 0 12 -6 25 -13 30 -7 4 -10 15 -6 24 3 9
11 14 18 10 6 -4 5 1 -3 10 -7 9 -19 17 -25 17 -6 0 -4 -5 4 -11 13 -9 13 -10
0 -6 -8 2 -14 12 -12 22 2 11 -1 14 -9 9 -8 -4 -10 -3 -5 5 4 6 0 14 -9 17
-12 5 -13 10 -4 20 6 8 15 11 20 8 5 -3 9 0 9 6 0 7 -6 10 -12 7 -7 -3 -22 -8
-33 -12 l-20 -8 20 17 c20 17 20 17 -2 11 -16 -4 -23 -1 -28 15 -4 11 -10 18
-15 15 -11 -7 -61 35 -55 46 4 5 1 9 -4 9 -6 0 -11 6 -11 14 0 8 -6 17 -12 19
-10 4 -10 6 -1 6 7 1 17 -8 23 -18 5 -11 19 -22 30 -26 11 -3 19 -9 19 -13 -3
-21 2 -32 12 -26 8 4 7 9 -2 16 -11 7 -9 8 5 6 12 -2 20 4 22 15 2 14 -1 16
-10 7 -20 -15 -70 12 -53 29 9 10 9 11 -3 7 -31 -11 -68 41 -47 65 10 11 9 11
-5 0 -9 -7 -14 -20 -12 -29 3 -9 -3 -5 -12 11 -10 15 -23 27 -28 27 -4 0 -2 8
5 17 12 15 12 16 -3 10 -13 -4 -15 -2 -11 10 5 12 2 15 -9 10 -12 -4 -14 -1
-11 14 3 11 0 19 -6 19 -7 0 -9 -5 -5 -12 5 -7 3 -8 -6 -3 -10 6 -9 11 5 22
22 15 12 17 -16 3 -13 -7 -19 -7 -19 0 0 5 -3 9 -7 9 -5 -1 -11 0 -15 1 -14 4
-28 7 -40 9 -9 1 -9 4 2 11 9 6 20 5 29 -3 11 -9 13 -9 8 0 -4 6 -2 14 3 16 6
3 5 4 -2 3 -7 -2 -19 4 -26 13 -11 14 -11 14 -6 -1 5 -14 1 -16 -17 -13 -30 6
-44 21 -28 30 8 5 10 4 5 -3 -5 -8 -2 -10 8 -6 23 9 19 24 -4 19 -12 -2 -23 2
-27 10 -3 8 -9 15 -14 15 -6 0 -5 -9 1 -20 15 -29 5 -25 -15 6 -9 15 -13 24
-7 20 5 -3 10 6 10 21 0 25 -1 26 -14 8 -8 -10 -14 -14 -14 -8 0 5 10 21 22
34 11 13 19 17 16 8 -5 -11 0 -15 15 -14 12 1 20 6 17 11 -3 5 -8 8 -12 7 -3
-1 -9 4 -12 13 -4 10 0 14 12 12 9 -2 16 2 15 9 -2 7 4 10 12 7 8 -4 15 -1 15
6 0 7 8 10 19 7 15 -4 18 0 16 18 -1 17 4 25 21 29 23 6 34 26 14 26 -5 0 -10
-4 -10 -10 0 -5 -4 -10 -9 -10 -12 0 -9 19 9 50 8 14 13 28 12 32 -1 4 6 4 16
1 15 -6 15 -5 3 11 -13 16 -13 18 0 16 7 -1 21 -2 29 -1 13 1 13 2 0 11 -12 8
-13 11 -1 19 8 5 9 11 3 15 -12 7 -25 -22 -15 -36 3 -6 1 -8 -5 -4 -18 11 -7
61 13 61 10 0 20 6 22 13 3 6 0 12 -7 12 -6 0 -8 -5 -4 -12 5 -7 3 -8 -6 -3
-10 6 -10 11 3 20 19 14 23 30 5 19 -7 -4 -8 -3 -4 5 4 6 13 8 19 4 7 -4 6 0
-2 10 -7 9 -9 17 -3 17 5 0 8 9 5 20 -3 11 -10 20 -17 20 -6 0 -4 5 4 10 13 9
13 11 0 20 -8 5 -10 10 -4 10 6 0 11 10 11 23 1 42 3 48 16 41 9 -6 9 -4 -1 8
-9 11 -9 18 -2 21 6 3 5 4 -2 3 -7 -2 -13 -8 -13 -14 0 -5 -4 -14 -8 -19 -5
-4 -8 -3 -7 2 5 23 -1 36 -12 29 -9 -5 -9 -2 1 9 12 16 8 22 -12 18 -5 -1 -6
3 -2 9 3 6 11 8 16 5 5 -4 9 1 9 9 0 9 -8 16 -17 16 -15 0 -15 2 -4 9 8 5 21
7 30 4 12 -3 12 -2 -2 7 -9 6 -14 16 -11 22 4 7 2 8 -5 4 -6 -4 -8 -12 -5 -18
4 -7 2 -8 -5 -4 -6 4 -9 12 -6 17 4 5 -1 16 -9 25 -9 8 -16 12 -16 8 0 -3 -6
-1 -13 5 -8 6 -18 7 -22 3 -5 -4 -5 -2 -1 5 4 7 -1 12 -11 12 -44 1 -50 5 -45
23 3 13 -1 18 -16 18 -23 0 -38 15 -23 24 5 4 12 0 14 -6 4 -9 6 -10 6 -1 2
22 -17 24 -32 3 -7 -11 -17 -17 -20 -13 -11 10 -8 25 3 18 6 -3 10 -1 10 4 0
14 -13 14 -28 -1 -7 -7 -12 -8 -12 -2 0 5 -5 2 -11 -6 -9 -13 -10 -12 -5 3 3
11 0 17 -9 17 -8 0 -15 5 -15 10 0 6 -5 10 -11 10 -5 0 -7 -6 -3 -12 6 -10 5
-10 -8 -1 -8 7 -19 9 -23 5 -5 -4 -5 -1 -1 6 4 7 13 9 19 6 9 -5 9 -3 0 6 -10
11 -15 11 -28 0 -8 -7 -18 -10 -22 -6 -3 3 -1 6 5 6 7 0 12 8 11 18 0 10 -3
12 -6 5 -2 -7 -9 -13 -15 -13 -6 0 -7 8 -4 17 4 10 4 14 0 10 -4 -4 -19 0 -33
10 -21 13 -24 14 -13 1z m32 -28 c0 -5 -4 -10 -10 -10 -5 0 -10 5 -10 10 0 6
5 10 10 10 6 0 10 -4 10 -10z m-60 -281 c0 -6 -5 -7 -12 -3 -7 4 -8 3 -4 -4 4
-6 14 -8 23 -5 10 4 14 2 10 -4 -4 -6 -1 -10 5 -9 15 2 23 21 9 21 -5 0 -12 2
-15 6 -3 3 5 5 19 5 13 0 23 -2 23 -5 -2 -18 3 -31 12 -31 5 0 6 8 3 17 -4 11
2 8 18 -8 13 -13 23 -30 21 -36 -2 -7 2 -13 8 -13 6 0 8 -6 4 -12 -4 -7 -3
-10 1 -5 5 4 19 0 32 -8 23 -15 23 -15 11 4 -6 11 -15 18 -19 15 -4 -2 -12 3
-18 10 -8 10 -9 16 -1 21 5 3 10 -1 10 -9 0 -10 7 -13 20 -11 11 2 18 0 15 -5
-3 -4 2 -15 10 -23 10 -11 11 -17 3 -19 -21 -7 -1 -37 22 -33 11 2 18 0 15 -6
-4 -5 -10 -7 -15 -4 -5 3 -11 1 -14 -4 -3 -5 4 -11 15 -14 21 -6 18 -27 -4
-27 -7 0 -6 4 3 11 10 7 11 9 2 7 -21 -6 -15 -22 10 -30 20 -5 21 -6 3 -8 -12
-1 -15 -4 -7 -7 10 -4 8 -8 -5 -18 -15 -12 -16 -16 -4 -27 8 -8 11 -8 7 -1 -3
6 -2 14 3 17 5 4 8 -2 6 -11 -1 -10 -8 -17 -14 -16 -15 4 -14 -14 2 -21 6 -3
-2 -4 -19 -2 -33 4 -37 -5 -19 -34 18 -29 15 -41 -7 -29 -16 9 -19 8 -12 -3 5
-7 10 -22 11 -33 2 -16 1 -17 -6 -5 -5 8 -7 18 -5 22 3 4 -3 5 -12 1 -10 -4
-15 -2 -11 4 3 5 0 10 -8 10 -13 0 -13 -3 0 -17 8 -9 12 -20 8 -25 -5 -4 -2
-5 5 -1 6 4 12 2 12 -5 0 -7 -11 -10 -29 -7 -18 3 -28 0 -24 -6 4 -5 -1 -7
-10 -3 -19 7 -32 -8 -16 -19 7 -4 10 -3 7 2 -4 5 6 10 20 11 22 1 23 0 9 -9
-10 -5 -26 -11 -37 -13 -11 -2 -24 -6 -29 -10 -5 -3 -13 0 -17 6 -4 7 -3 9 4
5 6 -3 13 -2 16 3 7 10 -13 9 -31 -2 -6 -4 -14 -3 -18 2 -3 5 3 14 12 20 10 6
14 11 10 11 -4 0 -18 -7 -32 -16 -22 -14 -24 -14 -34 5 -6 11 -11 25 -11 31 0
6 -9 29 -19 51 -11 21 -15 37 -10 33 18 -11 9 8 -13 27 -23 20 -23 20 -1 10
12 -6 28 -11 35 -10 7 0 4 4 -6 8 -11 4 -21 17 -23 30 -2 13 1 20 7 16 6 -3 7
1 4 10 -6 14 -8 14 -20 -2 -12 -17 -13 -16 -14 5 0 14 -4 21 -11 17 -6 -4 -5
2 2 13 7 12 17 18 23 15 5 -3 6 -1 2 6 -6 9 -11 9 -21 1 -9 -8 -14 -6 -19 5
-3 9 -2 13 4 10 9 -5 14 9 8 18 -2 2 4 12 12 23 14 18 14 18 -2 5 -10 -7 -15
-17 -12 -22 3 -5 -3 -9 -12 -9 -14 0 -15 3 -6 12 14 14 16 42 3 33 -5 -3 -12
-1 -15 4 -4 6 9 8 29 6 32 -3 34 -2 18 10 -10 7 -21 11 -25 9 -4 -3 -5 2 -2
10 5 13 22 25 47 31 4 2 9 4 12 5 3 1 11 3 18 4 6 1 11 8 9 16 -2 9 5 6 18 -7
27 -30 36 -29 17 0 -14 21 -13 23 4 24 10 1 19 -3 19 -8z m195 -319 c3 -5 -1
-10 -10 -10 -9 0 -13 5 -10 10 3 6 8 10 10 10 2 0 7 -4 10 -10z m-498 -64 c0
-8 -6 -12 -14 -9 -7 3 -10 9 -7 14 8 14 21 11 21 -5z m302 -104 c-1 -15 -2
-15 -6 1 -2 9 -9 14 -15 11 -7 -4 -8 -2 -4 5 10 15 26 4 25 -17z m-39 12 c0
-8 -19 -13 -24 -6 -3 5 1 9 9 9 8 0 15 -2 15 -3z m-210 -106 c0 -4 -6 -8 -14
-8 -8 0 -17 4 -20 8 -2 4 4 8 15 8 10 0 19 -4 19 -8z m245 -158 c3 -5 1 -10
-4 -10 -6 0 -11 5 -11 10 0 6 2 10 4 10 3 0 8 -4 11 -10z m289 -155 c-4 -8
-11 -12 -16 -9 -6 4 -5 10 3 15 19 12 19 11 13 -6z"/>
<path d="M450 3880 c0 -5 5 -10 11 -10 5 0 7 5 4 10 -3 6 -8 10 -11 10 -2 0
-4 -4 -4 -10z"/>
<path d="M584 3879 c-4 -7 -3 -9 4 -5 5 3 13 0 15 -6 4 -9 6 -10 6 -1 1 17
-16 25 -25 12z"/>
<path d="M390 3865 c-8 -9 -8 -15 -2 -15 12 0 26 19 19 26 -2 2 -10 -2 -17
-11z"/>
<path d="M650 3806 c0 -2 7 -7 16 -10 8 -3 12 -2 9 4 -6 10 -25 14 -25 6z"/>
<path d="M694 3690 c0 -13 4 -16 10 -10 7 7 7 13 0 20 -6 6 -10 3 -10 -10z"/>
<path d="M437 3595 c-4 -8 -1 -17 6 -21 7 -4 9 -4 5 1 -4 4 -3 14 3 22 7 8 8
13 1 13 -5 0 -12 -7 -15 -15z"/>
<path d="M450 3540 c13 -24 17 -25 17 -5 0 8 -6 16 -14 19 -11 4 -11 1 -3 -14z"/>
<path d="M440 4210 c6 -11 13 -20 16 -20 2 0 0 9 -6 20 -6 11 -13 20 -16 20
-2 0 0 -9 6 -20z"/>
<path d="M515 4210 c3 -5 8 -10 11 -10 2 0 4 5 4 10 0 6 -5 10 -11 10 -5 0 -7
-4 -4 -10z"/>
<path d="M655 4200 c-3 -5 -1 -10 4 -10 6 0 11 5 11 10 0 6 -2 10 -4 10 -3 0
-8 -4 -11 -10z"/>
<path d="M4430 4179 c0 -5 5 -7 10 -4 6 3 10 8 10 11 0 2 -4 4 -10 4 -5 0 -10
-5 -10 -11z"/>
<path d="M348 4158 c-19 -19 -13 -24 11 -9 7 5 12 13 10 18 -2 5 -12 1 -21 -9z"/>
<path d="M693 4172 c-9 -5 -6 -12 10 -21 19 -13 21 -12 10 1 -7 8 -10 18 -6
21 9 9 1 8 -14 -1z"/>
<path d="M4415 4139 c-4 -6 -5 -12 -2 -15 2 -3 7 2 10 11 7 17 1 20 -8 4z"/>
<path d="M195 4130 c-3 -6 1 -7 9 -4 18 7 21 14 7 14 -6 0 -13 -4 -16 -10z"/>
<path d="M3834 4108 l-19 -23 23 19 c12 11 22 21 22 23 0 8 -8 2 -26 -19z"/>
<path d="M143 4086 c13 -28 20 -26 23 7 2 12 0 16 -3 9 -4 -10 -8 -10 -18 -2
-11 10 -12 7 -2 -14z"/>
<path d="M831 4090 c-10 -5 -9 -8 2 -13 7 -3 19 -2 26 3 10 5 9 8 -2 13 -7 3
-19 2 -26 -3z"/>
<path d="M117 4077 c-3 -8 1 -14 8 -14 7 0 11 6 8 14 -3 7 -6 13 -8 13 -2 0
-5 -6 -8 -13z"/>
<path d="M916 4073 c-6 -14 -5 -15 5 -6 7 7 10 15 7 18 -3 3 -9 -2 -12 -12z"/>
<path d="M885 4060 c3 -5 8 -10 11 -10 2 0 4 5 4 10 0 6 -5 10 -11 10 -5 0 -7
-4 -4 -10z"/>
<path d="M3810 4059 c0 -5 5 -7 10 -4 6 3 10 8 10 11 0 2 -4 4 -10 4 -5 0 -10
-5 -10 -11z"/>
<path d="M3955 4060 c-3 -5 -1 -10 4 -10 6 0 11 5 11 10 0 6 -2 10 -4 10 -3 0
-8 -4 -11 -10z"/>
<path d="M4235 4060 c-3 -5 -13 -6 -23 -3 -19 7 -17 4 13 -17 11 -8 17 -10 13
-6 -4 5 -3 15 3 23 6 7 9 13 6 13 -3 0 -8 -4 -12 -10z"/>
<path d="M4375 4057 c-15 -12 -16 -15 -4 -22 8 -5 11 -5 7 0 -4 4 0 14 10 21
23 18 11 18 -13 1z"/>
<path d="M935 4051 c-3 -5 -2 -12 3 -15 5 -3 9 1 9 9 0 17 -3 19 -12 6z"/>
<path d="M55 4040 c3 -5 8 -10 11 -10 2 0 4 5 4 10 0 6 -5 10 -11 10 -5 0 -7
-4 -4 -10z"/>
<path d="M3830 4039 c0 -5 5 -7 10 -4 6 3 10 8 10 11 0 2 -4 4 -10 4 -5 0 -10
-5 -10 -11z"/>
<path d="M4354 4009 c-4 -7 -3 -9 4 -5 5 3 12 0 15 -6 2 -7 7 -10 11 -7 4 3 0
12 -8 18 -11 9 -16 9 -22 0z"/>
<path d="M3940 3983 c-7 -16 -12 -32 -10 -38 1 -5 3 -15 3 -22 0 -7 4 -10 9
-7 5 3 7 13 6 22 -2 11 3 16 12 14 12 -3 13 -1 3 9 -14 15 -18 33 -5 25 5 -3
9 1 9 9 0 23 -13 17 -27 -12z"/>
<path d="M74 3976 c1 -8 5 -18 8 -22 4 -3 5 1 4 10 -1 8 -5 18 -8 22 -4 3 -5
-1 -4 -10z"/>
<path d="M4357 3967 c-9 -23 8 -30 24 -10 8 9 9 14 2 10 -6 -4 -13 -2 -15 5
-3 8 -7 6 -11 -5z"/>
<path d="M965 3942 c-10 -7 -18 -32 -10 -32 2 0 9 9 15 20 12 22 11 24 -5 12z"/>
<path d="M86 3925 c-3 -8 -1 -15 3 -15 5 0 11 7 15 15 3 8 1 15 -3 15 -5 0
-11 -7 -15 -15z"/>
<path d="M1176 3922 c-3 -5 1 -9 9 -9 8 0 12 4 9 9 -3 4 -7 8 -9 8 -2 0 -6 -4
-9 -8z"/>
<path d="M3730 3901 c0 -7 -5 -9 -12 -5 -7 5 -8 3 -3 -5 5 -9 10 -10 18 -2 6
6 8 14 4 18 -4 3 -7 1 -7 -6z"/>
<path d="M103 3885 c0 -8 4 -12 9 -9 5 3 6 10 3 15 -9 13 -12 11 -12 -6z"/>
<path d="M1140 3888 c0 -5 -5 -6 -12 -2 -6 4 -8 3 -4 -4 3 -6 2 -13 -3 -17 -5
-3 -8 -15 -6 -26 3 -17 0 -19 -18 -14 -15 4 -18 3 -9 -3 11 -7 10 -12 -3 -26
-9 -9 -12 -16 -6 -16 6 0 11 -8 11 -17 0 -16 2 -16 11 -3 9 12 10 12 5 -3 -3
-10 -6 -21 -6 -23 0 -3 -4 -2 -10 1 -6 3 -7 -1 -4 -9 3 -9 11 -13 17 -9 6 4 7
1 1 -8 -13 -21 -13 -36 0 -37 28 -2 47 -9 57 -19 8 -8 20 -8 35 -3 13 5 32 7
41 4 14 -5 15 -4 4 4 -9 7 -10 15 -3 28 7 13 7 25 0 38 -8 15 -8 17 2 11 10
-6 12 -2 8 13 -4 12 -1 25 4 29 6 3 8 2 5 -3 -3 -6 4 -11 16 -11 21 -2 21 -1
3 9 -15 8 -16 12 -5 20 10 6 6 7 -11 3 -20 -6 -23 -5 -12 6 16 17 15 22 -8 49
-11 12 -18 26 -15 30 2 3 -2 7 -10 7 -11 0 -8 -9 10 -33 27 -36 30 -44 15 -44
-5 0 -9 5 -7 12 1 7 -5 13 -13 13 -8 1 -14 7 -12 14 4 20 -21 46 -45 47 -13 0
-23 -3 -23 -8z m-26 -87 c3 -5 -1 -11 -9 -14 -9 -4 -12 -1 -8 9 6 16 10 17 17
5z"/>
<path d="M1096 3873 c-6 -14 -5 -15 5 -6 7 7 10 15 7 18 -3 3 -9 -2 -12 -12z"/>
<path d="M3936 3874 c-5 -14 -4 -15 8 -5 8 7 21 9 27 5 8 -4 9 -3 5 4 -10 17
-33 15 -40 -4z"/>
<path d="M1895 3860 c3 -5 8 -10 11 -10 2 0 4 5 4 10 0 6 -5 10 -11 10 -5 0
-7 -4 -4 -10z"/>
<path d="M1922 3854 c-12 -8 -27 -12 -32 -9 -6 3 -10 1 -10 -5 0 -7 -7 -5 -16
4 -16 17 -39 12 -28 -5 3 -5 10 -7 15 -4 5 4 9 1 9 -6 0 -6 -8 -9 -20 -6 -11
3 -18 1 -15 -3 8 -13 -5 -39 -18 -36 -7 1 -9 1 -4 -1 4 -3 7 -12 7 -21 0 -15
2 -15 10 -2 7 11 8 7 6 -15 -2 -17 -8 -30 -14 -30 -6 0 -16 -5 -22 -11 -8 -8
-6 -11 4 -11 8 0 13 4 10 9 -3 4 2 5 12 1 15 -5 15 -7 0 -15 -9 -5 -16 -14
-16 -20 0 -6 7 -5 18 3 14 11 15 11 5 0 -6 -7 -9 -19 -7 -26 3 -7 1 -16 -5
-19 -6 -4 -7 -14 -4 -24 6 -16 6 -16 -11 1 -9 9 -18 17 -20 17 -7 0 -3 -41 5
-45 5 -4 6 2 2 12 -7 19 -5 18 17 -10 10 -14 11 -17 0 -15 -7 2 -15 -3 -18
-11 -3 -9 0 -11 8 -6 10 6 11 4 4 -6 -4 -8 -9 -20 -10 -27 -3 -20 -9 -23 -43
-24 -33 -1 -60 -22 -42 -33 6 -3 22 2 36 11 14 9 28 14 32 10 3 -3 0 -6 -8 -6
-11 0 -11 -2 1 -10 10 -6 11 -10 3 -10 -7 0 -13 -5 -13 -11 0 -5 6 -7 13 -3 9
6 9 5 0 -8 -7 -8 -9 -19 -5 -23 4 -5 1 -4 -7 0 -11 6 -13 4 -7 -11 12 -31 12
-39 -1 -36 -7 1 -13 -2 -13 -8 0 -5 4 -10 10 -10 5 0 7 -8 3 -17 -3 -10 -3
-15 2 -11 4 4 14 3 22 -3 9 -9 13 -8 13 0 0 8 4 8 14 -1 8 -7 11 -15 7 -18 -3
-3 -7 -11 -9 -19 -2 -9 3 -11 15 -7 15 5 15 4 -2 -9 -17 -14 -18 -17 -5 -25 8
-5 10 -10 4 -10 -6 0 -10 -12 -8 -27 1 -16 3 -28 4 -28 1 0 3 -8 5 -18 3 -15
1 -16 -11 -6 -7 6 -11 16 -7 23 5 8 3 8 -8 0 -8 -6 -21 -14 -29 -18 -9 -3 -6
-4 7 -2 23 4 36 -14 27 -39 -5 -11 -1 -14 12 -9 15 4 16 4 5 -4 -8 -6 -11 -17
-8 -25 4 -11 1 -14 -8 -11 -8 3 -11 12 -9 19 3 7 0 16 -6 20 -8 5 -7 11 2 23
8 11 4 10 -11 -3 l-24 -20 7 20 c6 16 5 17 -5 8 -10 -10 -9 -15 1 -27 7 -9 17
-13 23 -9 6 4 8 0 4 -9 -3 -9 -1 -20 4 -25 16 -16 19 -53 5 -47 -17 7 -41 -22
-26 -31 6 -4 14 -4 17 -1 4 3 1 6 -6 6 -7 0 -9 5 -5 11 4 8 9 7 14 -2 10 -15
1 -41 -11 -33 -5 3 -9 1 -9 -5 0 -5 6 -12 13 -14 10 -4 10 -6 0 -6 -7 -1 -13
-6 -13 -12 0 -5 4 -8 9 -5 5 3 7 -7 6 -22 -2 -24 2 -28 26 -30 28 -2 64 32 53
50 -3 5 3 12 13 14 13 4 19 13 18 27 -1 12 0 27 4 32 3 6 6 20 7 33 0 12 5 26
9 30 5 4 5 -1 2 -10 -4 -10 -2 -18 3 -18 6 0 10 12 10 26 0 17 -4 23 -12 18
-7 -4 -4 3 7 17 11 13 21 26 23 29 2 2 1 -9 -2 -25 -3 -17 -1 -36 3 -44 7 -10
9 -8 10 10 1 55 3 58 28 46 26 -12 28 -18 11 -36 -11 -11 -10 -13 2 -9 8 3 23
-5 32 -17 19 -24 33 -79 17 -70 -5 4 -6 11 -3 17 4 7 2 8 -4 4 -7 -4 -10 -2
-7 6 3 8 -1 22 -9 33 -14 19 -15 19 -14 -5 2 -28 34 -70 54 -70 7 0 16 -5 20
-12 4 -6 3 -9 -2 -6 -5 3 -15 -1 -22 -8 -11 -12 -10 -14 12 -10 18 3 23 1 19
-10 -3 -8 -10 -11 -17 -7 -6 4 -5 -1 3 -10 11 -14 11 -17 0 -17 -11 0 -11 -2
1 -9 19 -13 34 -3 20 14 -8 9 -8 15 0 20 5 3 10 -1 10 -9 0 -9 5 -16 11 -16 8
0 8 -5 -1 -15 -9 -11 -9 -15 -1 -15 8 0 9 -5 3 -17 -7 -12 -5 -24 5 -39 8 -13
12 -27 9 -33 -3 -5 1 -11 9 -14 11 -5 12 -1 5 18 -5 14 -6 25 -2 25 4 0 -1 5
-11 11 -17 10 -15 29 4 29 6 0 8 -4 4 -9 -3 -5 -1 -12 5 -16 6 -4 8 -11 5 -16
-4 -5 2 -9 12 -9 15 0 16 -2 3 -10 -12 -8 -12 -10 4 -16 14 -5 15 -9 4 -15
-10 -7 -10 -9 2 -9 13 0 13 -1 0 -11 -12 -8 -10 -9 8 -4 18 5 22 2 22 -14 0
-12 4 -21 9 -21 5 0 8 7 7 16 0 9 5 19 12 21 6 3 12 0 12 -7 0 -6 -5 -8 -12
-4 -7 4 -8 3 -4 -4 5 -8 13 -8 31 0 24 11 29 20 26 46 -1 6 6 12 16 13 14 0
15 2 3 6 -8 3 -18 10 -21 15 -8 12 2 69 10 63 4 -2 8 2 8 10 0 8 -3 14 -6 13
-19 -2 -22 4 -10 20 13 15 12 16 -3 3 -10 -7 -15 -18 -11 -25 3 -6 1 -6 -7 1
-19 18 -21 43 -4 36 10 -4 12 0 8 11 -3 9 -10 14 -14 11 -13 -8 -18 18 -9 43
5 12 5 22 1 22 -4 0 0 5 8 11 12 8 10 9 -9 4 -18 -6 -22 -4 -15 6 14 22 13 36
-2 36 -8 0 -11 -5 -6 -12 4 -6 0 -3 -10 7 -17 19 -14 58 6 58 6 0 3 5 -7 11
-9 6 -15 14 -13 18 3 4 -1 8 -9 8 -12 0 -12 -3 -3 -16 8 -10 4 -8 -10 3 -17
15 -19 22 -11 33 9 11 9 12 -4 8 -8 -4 -18 -2 -21 4 -4 6 -14 7 -23 4 -13 -5
-12 -2 3 15 9 12 22 18 27 15 6 -3 7 -1 4 5 -8 12 -32 10 -44 -3 -5 -4 -1 -5
7 0 8 5 12 4 7 0 -4 -5 -14 -10 -22 -11 -12 -2 -13 2 -4 18 10 18 9 20 -6 14
-13 -5 -16 -2 -11 9 4 11 2 14 -6 9 -7 -5 -9 -2 -5 9 3 8 0 20 -7 26 -9 8 -13
7 -13 -4 0 -8 5 -11 10 -8 6 4 7 1 3 -6 -9 -13 -21 -6 -21 12 -1 7 -6 11 -13
9 -17 -3 -15 3 5 19 11 9 14 10 9 2 -5 -9 -2 -11 10 -6 11 4 13 8 6 11 -16 5
-15 39 1 45 6 2 21 0 32 -5 19 -9 19 -8 2 6 -11 8 -26 12 -35 9 -10 -3 -4 5
13 18 16 13 33 24 37 24 14 0 39 45 32 57 -4 7 -3 8 4 4 9 -6 40 33 33 42 -1
2 10 15 25 29 16 14 24 18 21 9 -4 -9 -3 -15 1 -15 21 3 32 -2 26 -13 -5 -7
-3 -8 6 -3 10 6 9 11 -5 21 -17 13 -17 15 -2 32 10 10 15 21 12 24 -3 3 8 4
25 3 35 -3 36 -2 13 16 -14 12 -16 12 -8 0 6 -10 4 -12 -4 -6 -16 9 27 58 45
51 10 -4 10 2 2 25 -11 32 -33 37 -64 15 -17 -13 -20 -12 -32 7 -12 21 -12 21
-6 -6 5 -23 4 -26 -12 -20 -13 5 -15 3 -9 -7 5 -9 4 -11 -3 -6 -7 4 -12 2 -12
-3 0 -6 -6 -11 -14 -11 -8 0 -18 -5 -22 -12 -5 -7 -3 -8 6 -3 9 5 11 4 6 -4
-4 -6 -12 -9 -17 -6 -9 6 -14 -9 -9 -30 1 -5 -7 -2 -17 7 -20 19 -45 10 -49
-16 -1 -9 2 -14 7 -10 5 3 7 9 4 14 -6 9 20 21 29 13 9 -10 7 -25 -3 -19 -5 3
-14 -1 -21 -9 -6 -7 -18 -11 -26 -8 -9 3 -14 0 -12 -7 2 -7 -5 -14 -15 -15 -9
-2 -15 1 -11 6 3 5 10 6 16 3 7 -4 8 -2 4 4 -9 16 -32 5 -43 -20 -8 -20 -10
-20 -16 -4 -5 11 -3 15 4 10 7 -4 10 -1 7 7 -3 8 -11 13 -17 11 -7 -1 -10 2
-6 8 4 6 16 8 28 5 17 -5 19 -4 7 4 -8 6 -24 8 -34 5 -15 -5 -18 -3 -12 12 4
10 1 21 -6 26 -10 6 -10 8 0 8 6 0 12 5 12 11 0 5 -4 8 -8 5 -5 -3 -9 1 -9 9
0 11 4 12 13 4 8 -7 14 -6 20 2 5 8 3 9 -5 5 -8 -5 -12 -3 -10 5 3 29 -1 38
-18 32 -11 -4 -14 -3 -9 5 4 7 17 12 29 12 17 0 19 2 7 9 -8 6 -17 8 -20 6 -4
-2 -6 17 -6 43 1 32 6 49 16 54 11 5 10 7 -6 7 -30 1 -36 12 -16 27 24 19 11
17 -16 -2z m-197 -384 c-3 -5 -11 -10 -16 -10 -6 0 -7 5 -4 10 3 6 11 10 16
10 6 0 7 -4 4 -10z m290 -158 c-3 -3 -11 0 -18 7 -9 10 -8 11 6 5 10 -3 15 -9
12 -12z m170 -222 c-3 -5 -12 -10 -18 -10 -7 0 -6 4 3 10 19 12 23 12 15 0z
m80 -250 c-3 -5 -12 -10 -18 -10 -7 0 -6 4 3 10 19 12 23 12 15 0z"/>
<path d="M4373 3845 c0 -8 4 -12 9 -9 4 3 8 9 8 15 0 5 -4 9 -8 9 -5 0 -9 -7
-9 -15z"/>
<path d="M3606 3842 c-2 -4 4 -8 14 -8 10 0 16 4 14 8 -3 4 -9 8 -14 8 -5 0
-11 -4 -14 -8z"/>
<path d="M4090 3841 c0 -6 4 -13 10 -16 6 -3 7 1 4 9 -7 18 -14 21 -14 7z"/>
<path d="M110 3806 c0 -8 4 -17 8 -20 4 -2 8 4 8 15 0 10 -4 19 -8 19 -4 0 -8
-6 -8 -14z"/>
<path d="M976 3784 c4 -37 11 -39 12 -4 0 16 -3 30 -7 30 -5 0 -7 -12 -5 -26z"/>
<path d="M3625 3800 c-3 -6 1 -7 9 -4 18 7 21 14 7 14 -6 0 -13 -4 -16 -10z"/>
<path d="M3946 3801 c-4 -5 -2 -12 3 -15 5 -4 12 -2 15 3 4 5 2 12 -3 15 -5 4
-12 2 -15 -3z"/>
<path d="M93 3769 c-2 -23 3 -25 10 -4 4 8 3 16 -1 19 -4 3 -9 -4 -9 -15z"/>
<path d="M3631 3767 c-5 -14 -15 -27 -20 -28 -6 -2 -1 -10 11 -18 16 -9 19 -9
11 -1 -9 10 -8 18 4 37 9 13 13 26 10 30 -4 3 -11 -6 -16 -20z"/>
<path d="M1959 3778 c-7 -29 -5 -36 7 -31 16 6 18 19 4 28 -5 3 -10 5 -11 3z"/>
<path d="M1065 3760 c-3 -5 -1 -10 4 -10 6 0 11 5 11 10 0 6 -2 10 -4 10 -3 0
-8 -4 -11 -10z"/>
<path d="M1794 3756 c5 -14 2 -17 -9 -12 -9 3 -14 2 -11 -3 3 -5 15 -11 26
-14 17 -4 18 -3 8 16 -14 29 -23 36 -14 13z"/>
<path d="M5305 3759 c-4 -6 -5 -12 -2 -15 2 -3 7 2 10 11 7 17 1 20 -8 4z"/>
<path d="M5455 3760 c-3 -5 -1 -10 4 -10 6 0 11 5 11 10 0 6 -2 10 -4 10 -3 0
-8 -4 -11 -10z"/>
<path d="M4090 3746 c0 -2 7 -7 16 -10 8 -3 12 -2 9 4 -6 10 -25 14 -25 6z"/>
<path d="M995 3729 c-4 -6 -5 -12 -2 -15 2 -3 7 2 10 11 7 17 1 20 -8 4z"/>
<path d="M2309 3723 c-13 -16 -12 -17 4 -4 9 7 17 15 17 17 0 8 -8 3 -21 -13z"/>
<path d="M1056 3722 c-3 -5 1 -9 9 -9 8 0 12 4 9 9 -3 4 -7 8 -9 8 -2 0 -6 -4
-9 -8z"/>
<path d="M1250 3720 c0 -5 5 -10 10 -10 6 0 10 5 10 10 0 6 -4 10 -10 10 -5 0
-10 -4 -10 -10z"/>
<path d="M2238 3703 c7 -3 16 -2 19 1 4 3 -2 6 -13 5 -11 0 -14 -3 -6 -6z"/>
<path d="M4385 3690 c-3 -6 1 -7 9 -4 18 7 21 14 7 14 -6 0 -13 -4 -16 -10z"/>
<path d="M2165 3680 c-3 -5 -1 -10 4 -10 6 0 11 5 11 10 0 6 -2 10 -4 10 -3 0
-8 -4 -11 -10z"/>
<path d="M5290 3680 c0 -5 5 -10 10 -10 6 0 10 5 10 10 0 6 -4 10 -10 10 -5 0
-10 -4 -10 -10z"/>
<path d="M161 3667 c-8 -10 -7 -14 2 -14 8 0 14 6 14 14 0 7 -1 13 -2 13 -2 0
-8 -6 -14 -13z"/>
<path d="M1113 3645 c0 -8 4 -12 9 -9 5 3 6 10 3 15 -9 13 -12 11 -12 -6z"/>
<path d="M1142 3656 c4 -5 2 -16 -4 -25 -7 -9 -8 -12 -3 -8 5 4 14 -2 20 -14
12 -21 12 -21 17 -1 4 14 -1 27 -16 39 -11 10 -18 14 -14 9z"/>
<path d="M2148 3653 c7 -3 16 -2 19 1 4 3 -2 6 -13 5 -11 0 -14 -3 -6 -6z"/>
<path d="M3585 3650 c12 -19 -6 -32 -23 -18 -15 12 -16 11 -3 -5 9 -12 17 -14
26 -7 6 5 15 6 20 2 4 -4 2 3 -4 16 -6 12 -14 22 -17 22 -3 0 -2 -4 1 -10z"/>
<path d="M4395 3650 c3 -5 8 -10 11 -10 2 0 4 5 4 10 0 6 -5 10 -11 10 -5 0
-7 -4 -4 -10z"/>
<path d="M1200 3640 c-8 -5 -11 -10 -6 -10 5 0 3 -7 -4 -15 -7 -9 -10 -18 -6
-22 3 -3 6 -1 6 6 0 7 5 9 13 5 6 -4 9 -4 5 1 -4 4 -3 16 3 26 11 22 10 23
-11 9z"/>
<path d="M1782 3639 c2 -6 8 -10 13 -10 5 0 11 4 13 10 2 6 -4 11 -13 11 -9 0
-15 -5 -13 -11z"/>
<path d="M1230 3631 c0 -6 4 -13 10 -16 6 -3 7 1 4 9 -7 18 -14 21 -14 7z"/>
<path d="M2115 3629 c-4 -6 -5 -12 -2 -15 2 -3 7 2 10 11 7 17 1 20 -8 4z"/>
<path d="M2290 3625 c-7 -9 -8 -15 -2 -15 5 0 12 7 16 15 3 8 4 15 2 15 -2 0
-9 -7 -16 -15z"/>
<path d="M1965 3620 c-3 -5 -1 -10 4 -10 6 0 11 5 11 10 0 6 -2 10 -4 10 -3 0
-8 -4 -11 -10z"/>
<path d="M2320 3620 c-9 -6 -10 -10 -3 -10 6 0 15 5 18 10 8 12 4 12 -15 0z"/>
<path d="M4415 3609 c-4 -6 -5 -12 -2 -15 2 -3 7 2 10 11 7 17 1 20 -8 4z"/>
<path d="M1218 3600 c-1 -5 -12 -11 -23 -13 -11 -1 -26 -7 -34 -11 -9 -6 -12
-5 -7 2 11 18 -11 23 -25 5 -10 -12 -10 -14 -1 -9 6 4 12 2 12 -3 0 -12 -26
-15 -33 -3 -2 4 -2 2 -1 -5 2 -6 -2 -14 -9 -17 -7 -3 -1 -3 13 1 23 5 24 5 10
-12 -11 -13 -12 -19 -3 -22 8 -3 8 -11 -2 -30 -10 -19 -11 -32 -3 -46 7 -13 7
-17 0 -13 -6 3 -13 2 -17 -4 -3 -6 4 -11 17 -11 16 -1 18 -3 6 -6 -14 -3 -15
-9 -8 -29 6 -14 6 -24 0 -24 -4 0 -11 8 -14 18 -2 9 -4 6 -3 -8 2 -15 8 -24
15 -22 8 1 10 -2 7 -8 -4 -6 -13 -9 -21 -6 -7 3 -16 0 -20 -6 -4 -6 -3 -8 4
-4 6 3 18 -1 27 -10 12 -13 13 -19 4 -30 -9 -12 -9 -13 4 -9 8 4 18 2 22 -4 4
-7 0 -8 -11 -4 -12 4 -15 3 -10 -5 4 -7 2 -10 -7 -6 -8 3 -20 -3 -28 -13 -12
-16 -12 -17 2 -6 18 15 42 1 52 -30 6 -15 4 -16 -13 -7 -25 13 -26 7 -3 -16
10 -9 18 -29 18 -43 0 -14 5 -32 9 -40 6 -10 5 -12 -2 -7 -7 4 -12 1 -12 -8 0
-9 -5 -16 -12 -16 -6 0 -1 -9 12 -20 12 -11 28 -17 34 -13 6 4 5 -1 -3 -11
-13 -15 -13 -19 0 -27 11 -7 11 -9 0 -9 -9 0 -10 -4 -4 -12 11 -13 9 -45 -2
-56 -3 -4 -4 6 -1 22 4 23 3 26 -9 16 -22 -19 -2 -46 32 -44 15 1 33 -1 38 -5
17 -10 35 -10 29 0 -3 5 -11 6 -17 2 -7 -3 -4 3 6 14 16 19 27 49 29 81 2 15
11 15 25 1 8 -8 13 -7 18 3 5 7 5 10 0 6 -4 -4 -14 -3 -22 3 -11 10 -11 15 -1
28 11 14 11 14 -3 3 -14 -10 -18 -10 -22 1 -5 14 39 17 61 4 7 -5 12 -4 12 2
0 6 5 11 11 11 8 0 7 -5 -2 -16 -11 -14 -10 -15 7 -12 16 3 19 -3 19 -40 0
-47 2 -49 21 -24 13 16 14 16 8 0 -4 -11 -1 -18 6 -18 6 0 9 -4 6 -8 -6 -9 2
-22 27 -41 16 -12 18 -12 15 0 -2 8 3 13 11 11 8 -2 11 3 8 12 -4 9 -1 15 6
13 7 -1 11 4 9 11 -1 8 2 11 8 7 5 -3 14 5 20 19 5 14 12 26 14 26 3 0 3 -7
-1 -16 -5 -13 -3 -15 13 -7 10 6 26 8 34 6 13 -4 13 -3 0 6 -8 5 -18 7 -22 5
-4 -3 -8 0 -8 5 0 6 5 11 10 11 6 0 12 0 15 0 3 0 21 9 41 20 19 11 33 17 31
13 -3 -5 1 -14 9 -21 8 -7 14 -8 14 -3 0 6 13 24 29 40 27 27 31 28 43 14 11
-15 11 -16 -7 -9 -15 5 -17 4 -8 -5 20 -20 37 0 18 21 -11 12 -14 26 -10 41 5
15 4 19 -4 15 -6 -4 -15 3 -20 16 -8 18 -10 19 -10 5 -1 -10 -6 -15 -11 -12
-6 4 -7 11 -4 17 4 7 2 8 -5 4 -6 -4 -9 -11 -6 -16 3 -5 1 -11 -5 -15 -5 -3
-10 0 -10 8 0 8 -7 21 -17 28 -15 13 -15 12 -5 -8 9 -16 9 -24 0 -29 -7 -5 -8
-3 -3 6 6 10 4 12 -8 7 -9 -3 -19 -1 -23 5 -4 7 -3 8 4 4 7 -4 12 -3 12 2 0 5
-9 12 -21 15 -15 4 -19 2 -15 -8 3 -9 0 -12 -9 -8 -8 3 -13 8 -10 13 2 4 -2
16 -10 26 -11 13 -13 14 -10 3 4 -9 0 -16 -7 -16 -7 0 -22 -4 -33 -8 -15 -5
-17 -4 -6 3 16 11 25 46 10 36 -5 -3 -9 0 -9 7 0 7 -3 9 -6 6 -4 -4 -1 -13 6
-22 8 -10 9 -15 1 -15 -23 0 -20 63 4 77 11 7 14 12 7 13 -7 0 -10 5 -6 12 4
7 3 8 -5 4 -6 -4 -9 -12 -6 -17 4 -5 2 -9 -2 -9 -14 0 -34 38 -23 45 6 4 9 2
8 -3 -2 -6 2 -12 7 -14 6 -1 11 7 13 20 2 12 7 22 12 22 5 0 7 -6 4 -14 -3 -8
-1 -17 5 -21 7 -3 8 0 5 9 -4 10 -1 16 7 16 8 0 5 6 -7 16 -10 8 -13 13 -6 9
7 -4 12 0 12 9 0 9 7 16 16 16 8 0 12 4 9 10 -4 7 2 7 19 0 20 -7 24 -6 19 5
-3 8 -10 12 -17 8 -7 -4 -7 -1 1 7 7 7 23 14 35 16 13 1 26 3 31 3 4 1 7 6 7
12 0 8 -6 7 -17 -2 -12 -10 -15 -11 -9 -1 4 7 26 20 48 29 44 18 63 49 42 71
-8 7 -18 10 -24 7 -14 -9 -13 8 2 23 8 8 8 12 1 12 -6 0 -13 -7 -17 -15 -3 -8
-10 -15 -16 -15 -13 0 -41 26 -35 32 2 2 -12 4 -32 5 -21 0 -30 -2 -23 -7 7
-5 18 -6 25 -4 6 3 17 -1 23 -9 9 -11 7 -13 -11 -11 -12 1 -22 3 -22 4 0 8
-42 6 -52 -2 -9 -7 -13 -7 -13 1 0 6 -5 11 -11 11 -6 0 -9 -6 -7 -12 6 -17
-39 -51 -54 -42 -7 5 -9 2 -5 -9 3 -9 0 -18 -9 -21 -9 -3 -12 -11 -8 -18 4 -7
4 -10 -1 -6 -4 4 -14 3 -22 -3 -7 -6 -13 -8 -13 -3 0 5 -7 -2 -16 -14 -8 -12
-12 -27 -9 -32 3 -6 2 -10 -4 -10 -5 0 -11 6 -14 13 -3 6 -4 2 -4 -10 1 -12 4
-20 8 -17 4 2 11 0 14 -6 4 -6 1 -9 -7 -8 -7 2 -14 -4 -14 -12 -1 -8 -2 -21
-3 -28 -1 -10 -4 -10 -15 0 -7 7 -11 19 -9 26 5 12 -52 39 -72 33 -5 -1 -6 1
-2 6 5 4 18 8 29 8 12 0 23 7 25 15 4 13 3 13 -6 0 -8 -11 -11 -12 -11 -2 0 7
-4 11 -9 8 -13 -9 -20 31 -8 43 6 6 7 11 3 11 -5 0 -2 8 5 18 7 9 9 14 5 10
-15 -13 -34 34 -24 61 8 22 7 23 -8 10 -15 -12 -16 -12 -10 9 7 21 1 33 -6 12z
m367 -160 c-3 -5 -12 -10 -18 -10 -7 0 -6 4 3 10 19 12 23 12 15 0z m-298 -70
c9 0 13 -6 10 -15 -4 -8 -2 -17 3 -20 13 -8 13 -35 0 -35 -5 0 -6 8 -3 18 6
15 5 16 -13 2 -18 -14 -18 -14 -4 4 14 18 13 18 -10 12 l-25 -7 25 16 25 16
-24 -7 c-15 -4 -21 -2 -17 4 3 6 3 12 -1 15 -5 2 -2 2 5 0 8 -1 20 -3 29 -3z
m8 -88 c-3 -3 -11 0 -18 7 -9 10 -8 11 6 5 10 -3 15 -9 12 -12z m247 -121 c-4
-10 -7 -11 -10 -3 -2 7 -9 9 -14 6 -6 -4 -8 -3 -5 3 10 16 36 11 29 -6z m-249
-88 c-7 -2 -19 -2 -25 0 -7 3 -2 5 12 5 14 0 19 -2 13 -5z m-139 -24 c-3 -5
-10 -7 -15 -3 -5 3 -7 10 -3 15 3 5 10 7 15 3 5 -3 7 -10 3 -15z m100 -51 c-2
-10 -6 -28 -9 -39 -2 -12 -7 -24 -10 -28 -8 -7 1 45 10 59 3 5 0 10 -7 11 -9
0 -10 2 -1 5 7 3 9 13 6 22 -4 14 -3 14 5 3 6 -8 8 -23 6 -33z"/>
<path d="M1965 3590 c-3 -6 1 -7 9 -4 18 7 21 14 7 14 -6 0 -13 -4 -16 -10z"/>
<path d="M1516 3578 c3 -5 10 -6 15 -3 13 9 11 12 -6 12 -8 0 -12 -4 -9 -9z"/>
<path d="M1637 3573 c3 -7 6 -13 8 -13 2 0 5 6 8 13 3 8 -1 14 -8 14 -7 0 -11
-6 -8 -14z"/>
<path d="M2016 3578 c3 -4 12 -8 20 -8 8 0 14 4 14 8 0 4 -9 8 -19 8 -11 0
-17 -4 -15 -8z"/>
<path d="M3169 3576 c-2 -3 -16 -6 -31 -8 -15 -2 -30 -7 -34 -11 -4 -3 3 -5
15 -2 25 5 24 5 9 -32 -6 -15 -11 -31 -10 -35 1 -5 -2 -8 -7 -8 -6 0 -9 9 -8
19 0 11 5 17 9 15 4 -3 8 -1 8 4 0 6 -6 12 -14 15 -8 3 -13 -1 -13 -11 0 -49
-3 -57 -14 -42 -9 13 -10 13 -6 0 2 -8 11 -14 20 -12 8 1 18 -2 22 -8 4 -6 3
-10 -2 -9 -20 3 -25 -2 -13 -15 10 -13 8 -14 -13 -10 -26 4 -45 -20 -25 -32 6
-4 8 -3 4 4 -3 6 -1 14 5 17 7 5 10 0 7 -11 -2 -11 -10 -19 -18 -20 -24 -2
-50 -15 -50 -27 0 -6 3 -7 6 -4 4 3 15 2 25 -4 13 -6 19 -6 19 1 0 5 -7 10
-16 10 -8 0 -12 5 -9 10 5 8 11 8 19 1 7 -6 17 -7 21 -3 5 4 2 -4 -7 -18 -10
-15 -24 -24 -37 -23 -15 2 -19 -2 -14 -15 7 -18 5 -17 -17 12 -13 17 -13 18
-1 11 11 -6 13 -4 7 11 -5 10 -9 30 -11 44 -3 38 -4 39 -24 49 -14 8 -22 7
-32 -7 -13 -15 -12 -16 4 -3 16 13 15 9 -3 -22 -12 -20 -26 -37 -32 -37 -5 0
-7 -4 -4 -9 7 -10 -42 -33 -55 -25 -5 3 -7 9 -4 14 3 5 1 11 -5 15 -5 3 -10
-2 -10 -12 0 -10 -10 0 -22 24 l-21 42 -35 -14 c-19 -8 -39 -12 -45 -8 -6 3
-7 1 -3 -6 4 -6 16 -9 27 -6 21 7 22 1 9 -30 -7 -17 -9 -17 -9 -2 -1 9 -6 17
-12 17 -5 0 -7 -6 -3 -12 4 -8 3 -10 -2 -5 -5 5 -9 14 -9 20 0 6 -10 17 -23
23 -23 11 -23 12 -3 17 12 3 19 2 16 -2 -2 -5 8 -6 23 -2 25 5 25 6 4 9 -13 2
-19 8 -16 14 4 6 2 8 -4 4 -5 -3 -12 -3 -15 1 -2 5 -3 3 -1 -3 1 -6 -3 -11 -9
-11 -7 0 -13 11 -14 24 -7 65 -5 63 -43 61 -25 -2 -36 -8 -38 -20 -1 -10 -2
-25 -3 -33 -1 -8 -10 -22 -20 -31 -15 -13 -17 -13 -15 -1 1 8 8 22 14 30 11
13 10 15 -4 13 -10 -2 -19 -13 -21 -27 -2 -13 -6 -31 -10 -39 -3 -8 -7 -21 -9
-28 -4 -19 -9 -23 -32 -25 -12 -1 -18 -6 -15 -15 5 -11 7 -11 14 0 7 10 9 9 9
-4 0 -10 -4 -18 -10 -18 -5 0 -10 -5 -10 -11 0 -5 4 -8 9 -4 6 3 8 -6 5 -21
-3 -16 -1 -23 6 -19 6 3 7 0 4 -9 -3 -9 -10 -16 -16 -16 -5 0 -6 6 -2 13 5 8
2 8 -9 -2 -9 -7 -17 -19 -17 -25 0 -6 5 -4 10 4 8 12 10 11 10 -7 0 -12 3 -23
8 -26 4 -2 2 -2 -5 -1 -14 3 -26 -23 -13 -31 4 -3 11 0 13 5 3 6 4 5 3 -2 -1
-7 -14 -12 -28 -13 -15 0 -30 -3 -34 -7 -3 -4 3 -6 15 -3 19 3 21 0 18 -33 -2
-23 -8 -36 -16 -34 -7 1 -10 -2 -6 -8 3 -6 10 -8 15 -5 4 3 10 -2 14 -10 3 -8
1 -17 -4 -20 -4 -3 -10 0 -12 7 -3 8 -7 6 -11 -4 -5 -13 -1 -16 20 -12 24 5
25 3 12 -12 -8 -10 -9 -15 -3 -11 7 4 17 0 24 -8 17 -20 27 -19 33 5 3 11 10
20 17 20 6 0 8 -4 5 -10 -3 -5 -1 -10 4 -10 14 0 14 17 1 25 -6 4 -8 11 -4 16
3 6 12 3 21 -8 13 -16 13 -16 2 7 -20 39 -19 49 4 44 12 -3 27 -6 33 -8 7 -1
19 -8 28 -16 14 -10 14 -15 4 -21 -9 -6 -9 -9 -1 -9 6 0 15 5 19 11 5 8 10 6
16 -5 5 -9 6 -21 3 -26 -4 -6 -3 -10 2 -9 4 1 10 0 13 -1 3 -1 15 -3 26 -4 17
-2 21 2 19 20 -1 12 2 28 6 36 7 10 9 10 10 -2 1 -8 1 -20 0 -27 -2 -17 16
-25 25 -12 4 8 3 9 -4 5 -7 -4 -12 -3 -12 2 0 17 13 21 34 11 20 -10 20 -10 2
5 -11 9 -17 19 -13 22 4 4 14 1 24 -7 9 -8 14 -9 10 -2 -4 6 -3 23 3 37 10 27
29 27 61 -1 9 -7 19 -10 24 -6 4 5 5 2 1 -4 -4 -7 -2 -13 4 -13 6 0 8 -5 4
-12 -5 -8 -2 -9 10 -5 10 4 19 1 22 -8 9 -21 25 -19 18 3 -4 11 1 8 15 -8 11
-14 21 -29 21 -34 0 -5 3 -6 6 -3 4 4 1 13 -5 21 -9 11 -9 16 0 22 8 5 9 3 4
-6 -6 -10 -4 -12 8 -7 9 3 19 2 22 -4 4 -5 11 -6 17 -3 6 4 8 2 5 -3 -8 -12
12 -22 31 -16 6 3 9 10 5 16 -4 7 1 6 10 -2 18 -14 23 -26 8 -16 -5 3 -12 1
-15 -4 -5 -7 22 -8 32 -1 15 13 54 -8 45 -23 -7 -11 40 15 49 28 10 12 7 75
-3 96 -5 9 -3 21 4 28 7 7 8 11 2 9 -5 -2 -11 1 -12 6 -1 5 -6 12 -11 15 -6 4
-5 11 3 18 10 10 14 9 19 -3 4 -10 2 -13 -6 -8 -7 4 -8 3 -4 -4 12 -19 29 -14
21 6 -4 9 -8 22 -8 29 0 6 -6 9 -13 6 -6 -2 -15 1 -20 8 -5 8 -3 10 6 4 10 -6
12 -4 6 11 -13 32 -15 55 -5 49 5 -4 7 -9 5 -13 -2 -4 2 -16 10 -27 8 -10 14
-13 14 -6 0 7 5 9 13 5 7 -4 9 -3 4 2 -5 5 -13 9 -19 9 -12 0 -18 20 -22 72
-2 18 0 30 5 28 4 -3 6 -16 3 -29 -4 -26 20 -55 31 -36 4 6 1 9 -6 8 -6 -2
-14 3 -17 11 -3 10 0 11 9 5 12 -6 12 -5 1 8 -11 14 -10 18 5 28 16 10 16 11
1 6 -13 -4 -18 0 -18 14 0 10 5 22 10 25 6 3 10 11 10 17 0 7 -4 7 -12 0 -10
-8 -13 0 -12 34 0 25 -4 44 -10 44 -7 0 -7 3 1 8 18 11 12 106 -7 110 -9 1
-18 1 -21 -2z m-72 -188 c-3 -8 -6 -5 -6 6 -1 11 2 17 5 13 3 -3 4 -12 1 -19z
m-393 -47 c3 -5 -2 -15 -12 -22 -15 -12 -16 -12 -5 2 7 9 10 19 6 22 -3 4 -4
7 0 7 3 0 8 -4 11 -9z m350 -39 c3 -5 -1 -9 -9 -9 -8 0 -15 4 -15 9 0 4 4 8 9
8 6 0 12 -4 15 -8z m-461 -208 c-3 -9 3 -12 24 -8 19 3 24 1 14 -5 -11 -7 -10
-11 5 -20 11 -6 14 -11 8 -11 -6 0 -17 7 -24 15 -7 9 -15 13 -18 10 -6 -6 -32
14 -32 25 0 3 6 7 14 7 8 0 12 -6 9 -13z"/>
<path d="M4416 3568 c3 -5 10 -6 15 -3 13 9 11 12 -6 12 -8 0 -12 -4 -9 -9z"/>
<path d="M5261 3571 c-7 -5 -11 -13 -8 -17 2 -5 0 -20 -6 -34 l-10 -25 -7 25
c-8 25 -8 25 -9 2 -1 -13 -5 -20 -11 -17 -6 4 -8 10 -5 15 3 5 1 11 -4 14 -16
11 -22 -11 -6 -24 8 -7 13 -16 10 -20 -3 -5 0 -12 6 -16 6 -4 16 1 21 10 5 9
13 14 17 12 4 -3 8 0 9 7 5 39 9 54 16 65 9 14 6 15 -13 3z"/>
<path d="M1463 3558 c3 -9 1 -19 -6 -21 -7 -2 -9 -7 -6 -11 12 -13 28 19 17
34 -8 13 -9 12 -5 -2z"/>
<path d="M1745 3559 c-11 -16 -1 -19 13 -3 7 8 8 14 3 14 -5 0 -13 -5 -16 -11z"/>
<path d="M2240 3555 c-11 -13 -10 -14 5 -9 14 6 16 4 10 -7 -5 -8 -4 -11 0 -6
12 10 15 37 5 37 -4 0 -13 -7 -20 -15z"/>
<path d="M2613 3545 c0 -8 4 -12 9 -9 5 3 6 10 3 15 -9 13 -12 11 -12 -6z"/>
<path d="M5435 3551 c-3 -5 -2 -12 3 -15 5 -3 9 1 9 9 0 17 -3 19 -12 6z"/>
<path d="M1254 3531 c13 -12 18 -13 28 -2 11 10 9 11 -6 5 -12 -5 -17 -4 -13
3 3 5 -1 10 -9 10 -13 0 -13 -2 0 -16z"/>
<path d="M1764 3543 c4 -7 3 -13 -3 -13 -6 0 -8 -7 -5 -15 4 -8 10 -13 14 -10
10 6 7 32 -5 42 -4 4 -5 2 -1 -4z"/>
<path d="M905 3530 c-3 -5 -3 -10 1 -10 4 0 -1 -7 -12 -16 -18 -15 -18 -15 0
-6 11 5 21 17 22 26 3 18 -2 21 -11 6z"/>
<path d="M5628 3533 c7 -3 16 -2 19 1 4 3 -2 6 -13 5 -11 0 -14 -3 -6 -6z"/>
<path d="M5732 3514 c7 -14 14 -21 16 -15 3 9 8 8 20 -1 15 -12 16 -11 3 5 -8
10 -23 22 -33 28 -16 9 -17 7 -6 -17z"/>
<path d="M1090 3518 c0 -9 5 -20 10 -23 13 -8 13 5 0 25 -8 13 -10 13 -10 -2z"/>
<path d="M1730 3515 c0 -8 4 -15 10 -15 5 0 7 7 4 15 -4 8 -8 15 -10 15 -2 0
-4 -7 -4 -15z"/>
<path d="M2177 3509 c-9 -6 -15 -14 -12 -20 4 -5 -6 -25 -21 -44 -15 -20 -24
-38 -20 -42 3 -3 6 -1 6 6 0 7 5 9 10 6 6 -4 10 -3 9 2 -4 21 2 34 13 27 7 -4
8 -3 4 5 -4 6 0 14 8 17 9 3 13 10 10 15 -3 5 -1 9 4 9 5 0 9 7 9 15 0 8 -1
15 -1 15 -1 0 -9 -5 -19 -11z"/>
<path d="M1406 3495 c-3 -9 -10 -14 -15 -10 -5 3 -12 1 -15 -4 -4 -5 -2 -12 3
-15 10 -6 47 31 39 39 -3 3 -8 -1 -12 -10z"/>
<path d="M2673 3495 c0 -8 4 -12 9 -9 5 3 6 10 3 15 -9 13 -12 11 -12 -6z"/>
<path d="M3225 3500 c-3 -6 1 -7 9 -4 18 7 21 14 7 14 -6 0 -13 -4 -16 -10z"/>
<path d="M5610 3500 c0 -5 5 -10 11 -10 5 0 7 5 4 10 -3 6 -8 10 -11 10 -2 0
-4 -4 -4 -10z"/>
<path d="M187 3479 c7 -26 19 -32 19 -9 0 11 -6 22 -12 24 -7 3 -10 -3 -7 -15z"/>
<path d="M1080 3481 c0 -6 4 -13 10 -16 6 -3 7 1 4 9 -7 18 -14 21 -14 7z"/>
<path d="M1262 3470 c-9 -14 -8 -19 4 -24 9 -4 12 -2 8 5 -4 6 -1 15 6 19 7 4
8 10 3 13 -5 3 -14 -3 -21 -13z"/>
<path d="M1300 3486 c0 -2 8 -10 18 -17 15 -13 16 -12 3 4 -13 16 -21 21 -21
13z"/>
<path d="M3541 3474 c0 -11 3 -14 6 -6 3 7 2 16 -1 19 -3 4 -6 -2 -5 -13z"/>
<path d="M2695 3471 c-3 -5 -2 -12 3 -15 5 -3 9 1 9 9 0 17 -3 19 -12 6z"/>
<path d="M3219 3478 c-1 -2 -2 -15 -3 -30 -2 -18 1 -25 11 -21 16 6 17 19 1
29 -8 5 -6 10 8 15 17 7 17 8 2 8 -10 1 -18 0 -19 -1z"/>
<path d="M1665 3452 c-5 -4 -11 -14 -13 -22 -2 -12 1 -11 11 2 8 10 18 14 22
10 5 -4 5 -1 1 6 -8 14 -8 14 -21 4z"/>
<path d="M1734 3449 c-3 -6 -2 -15 3 -20 5 -5 9 -1 9 11 0 23 -2 24 -12 9z"/>
<path d="M166 3438 c3 -5 10 -6 15 -3 13 9 11 12 -6 12 -8 0 -12 -4 -9 -9z"/>
<path d="M1700 3426 c0 -2 7 -9 15 -16 9 -7 15 -8 15 -2 0 5 -7 12 -15 16 -8
3 -15 4 -15 2z"/>
<path d="M3010 3425 c0 -7 30 -13 34 -7 3 4 -4 9 -15 9 -10 1 -19 0 -19 -2z"/>
<path d="M3763 3409 c-2 -19 11 -32 35 -35 6 -1 10 2 6 7 -3 5 -9 7 -14 4 -5
-3 -12 0 -16 6 -3 6 -1 15 6 19 9 5 8 8 -2 13 -9 3 -14 -2 -15 -14z"/>
<path d="M2500 3405 c-7 -9 -8 -15 -2 -15 5 0 12 7 16 15 3 8 4 15 2 15 -2 0
-9 -7 -16 -15z"/>
<path d="M2906 3403 c4 -16 -8 -17 -22 -3 -7 7 -11 6 -11 -4 0 -8 5 -12 10 -9
5 3 7 0 5 -8 -3 -8 -12 -13 -20 -11 -8 1 -15 -5 -15 -13 0 -26 17 -18 57 29
14 16 20 26 13 23 -6 -4 -13 -4 -16 0 -2 5 -2 2 -1 -4z"/>
<path d="M835 3401 c-3 -5 -2 -12 3 -15 5 -3 9 1 9 9 0 17 -3 19 -12 6z"/>
<path d="M1310 3396 c0 -8 4 -17 9 -20 5 -4 7 3 4 14 -6 23 -13 26 -13 6z"/>
<path d="M2814 3399 c-10 -17 9 -28 31 -18 18 9 18 9 -3 5 -17 -3 -22 -1 -18
10 6 17 0 19 -10 3z"/>
<path d="M3013 3403 c4 -3 1 -13 -6 -22 -11 -14 -10 -14 5 -2 16 12 16 31 1
31 -4 0 -3 -3 0 -7z"/>
<path d="M3220 3406 c0 -2 7 -6 15 -10 8 -3 15 -1 15 4 0 6 -7 10 -15 10 -8 0
-15 -2 -15 -4z"/>
<path d="M3558 3403 c7 -3 16 -2 19 1 4 3 -2 6 -13 5 -11 0 -14 -3 -6 -6z"/>
<path d="M810 3380 c0 -5 5 -10 11 -10 5 0 7 5 4 10 -3 6 -8 10 -11 10 -2 0
-4 -4 -4 -10z"/>
<path d="M1714 3378 c-4 -7 -4 -10 1 -6 4 4 15 2 24 -5 14 -11 14 -10 2 6 -16
20 -18 21 -27 5z"/>
<path d="M2071 3376 c-10 -11 -9 -14 1 -12 14 2 23 15 15 22 -2 2 -10 -2 -16
-10z"/>
<path d="M2110 3379 c0 -5 5 -7 10 -4 6 3 10 8 10 11 0 2 -4 4 -10 4 -5 0 -10
-5 -10 -11z"/>
<path d="M2464 3378 c-4 -7 -4 -10 1 -6 4 4 14 3 21 -3 9 -7 14 -6 20 3 4 7 4
10 -1 6 -4 -4 -14 -3 -21 3 -9 7 -14 6 -20 -3z"/>
<path d="M1540 3370 c-8 -5 -11 -12 -8 -16 4 -3 14 1 23 10 18 17 9 21 -15 6z"/>
<path d="M3754 3352 c-11 -18 -8 -42 6 -42 5 0 7 8 6 18 -2 9 1 20 6 23 6 4 6
9 1 12 -5 3 -14 -2 -19 -11z"/>
<path d="M3027 3339 c7 -7 15 -10 18 -7 3 3 -2 9 -12 12 -14 6 -15 5 -6 -5z"/>
<path d="M3554 3332 c4 -7 3 -19 -4 -27 -9 -11 -7 -13 7 -10 19 3 19 23 1 40
-8 7 -9 6 -4 -3z"/>
<path d="M771 3314 c0 -11 3 -14 6 -6 3 7 2 16 -1 19 -3 4 -6 -2 -5 -13z"/>
<path d="M4187 3316 c-4 -11 -5 -21 -2 -24 3 -3 5 1 5 8 0 14 14 5 16 -11 1
-5 2 -13 3 -18 0 -5 9 -12 18 -15 15 -6 16 -5 1 11 -8 10 -14 26 -13 36 2 9 0
15 -5 12 -5 -3 -10 0 -12 7 -3 7 -7 5 -11 -6z"/>
<path d="M793 3305 c0 -8 4 -12 9 -9 5 3 6 10 3 15 -9 13 -12 11 -12 -6z"/>
<path d="M230 3306 c0 -2 7 -7 16 -10 8 -3 12 -2 9 4 -6 10 -25 14 -25 6z"/>
<path d="M3880 3282 c27 -36 29 -38 26 -17 -1 9 -13 23 -26 32 l-23 16 23 -31z"/>
<path d="M1080 3290 c-8 -5 -11 -13 -6 -17 5 -4 11 -2 13 5 3 6 10 9 15 6 7
-4 8 -2 4 4 -9 14 -7 14 -26 2z"/>
<path d="M1763 3285 c8 -5 13 -18 11 -28 -1 -11 0 -16 4 -12 3 3 7 16 7 28 1
16 -4 23 -17 23 -16 0 -17 -2 -5 -11z"/>
<path d="M4159 3293 c0 -5 -2 -15 -4 -24 -2 -11 3 -16 13 -15 9 2 17 8 18 15
1 6 0 7 -3 1 -7 -15 -23 -1 -16 15 3 8 2 15 -1 15 -3 0 -6 -3 -7 -7z"/>
<path d="M5835 3280 c3 -5 11 -10 16 -10 6 0 7 5 4 10 -3 6 -11 10 -16 10 -6
0 -7 -4 -4 -10z"/>
<path d="M247 3266 c5 -15 3 -17 -8 -11 -12 8 -12 6 0 -8 27 -34 43 -16 16 19
-15 18 -15 18 -8 0z"/>
<path d="M2460 3270 c-8 -5 -12 -12 -9 -15 4 -3 12 1 19 10 14 17 11 19 -10 5z"/>
<path d="M3553 3251 c-3 -13 -11 -18 -21 -14 -14 4 -15 3 -2 -5 8 -6 17 -9 21
-6 8 5 19 44 12 44 -3 0 -7 -9 -10 -19z"/>
<path d="M1495 3240 c3 -5 8 -10 11 -10 2 0 4 5 4 10 0 6 -5 10 -11 10 -5 0
-7 -4 -4 -10z"/>
<path d="M3740 3243 c0 -6 8 -17 18 -24 16 -13 16 -13 2 6 -8 11 -16 22 -17
24 -2 2 -3 0 -3 -6z"/>
<path d="M4194 3235 c3 -23 12 -26 13 -5 1 11 -2 20 -7 20 -4 0 -7 -7 -6 -15z"/>
<path d="M4153 3233 c4 -3 2 -12 -4 -20 -6 -7 -8 -13 -4 -13 4 0 2 -7 -5 -15
-7 -8 -9 -15 -6 -15 4 0 14 7 22 15 9 9 11 15 4 15 -6 0 -8 5 -5 10 4 6 11 8
16 5 5 -3 6 1 3 9 -3 9 -11 16 -17 16 -6 0 -7 -3 -4 -7z"/>
<path d="M4225 3230 c-3 -5 -2 -18 4 -27 7 -14 9 -12 8 10 -2 30 -3 31 -12 17z"/>
<path d="M1773 3218 c6 -17 -23 -43 -37 -33 -3 3 -4 2 -1 -2 9 -11 35 -12 35
-2 0 6 4 8 9 4 11 -6 6 34 -5 44 -4 3 -4 -2 -1 -11z"/>
<path d="M3514 3202 c3 -18 18 -20 24 -4 1 5 -4 12 -12 15 -9 4 -13 0 -12 -11z"/>
<path d="M886 3202 c-2 -4 4 -9 15 -9 11 -1 17 2 14 8 -7 11 -22 12 -29 1z"/>
<path d="M3747 3199 c7 -7 15 -10 18 -7 3 3 -2 9 -12 12 -14 6 -15 5 -6 -5z"/>
<path d="M5496 3194 c-3 -8 0 -16 6 -20 7 -5 8 -2 3 6 -6 9 -4 12 7 8 8 -4 15
-1 15 6 0 17 -25 16 -31 0z"/>
<path d="M2436 3183 c-6 -14 -5 -15 5 -6 7 7 10 15 7 18 -3 3 -9 -2 -12 -12z"/>
<path d="M6260 3181 c0 -7 -5 -9 -12 -5 -7 5 -8 3 -3 -5 5 -9 10 -10 18 -2 6
6 8 14 4 18 -4 3 -7 1 -7 -6z"/>
<path d="M2126 3168 c3 -5 10 -6 15 -3 13 9 11 12 -6 12 -8 0 -12 -4 -9 -9z"/>
<path d="M6195 3170 c3 -5 8 -10 11 -10 2 0 4 5 4 10 0 6 -5 10 -11 10 -5 0
-7 -4 -4 -10z"/>
<path d="M2173 3155 c0 -8 4 -12 9 -9 5 3 6 10 3 15 -9 13 -12 11 -12 -6z"/>
<path d="M5856 3155 c-3 -8 -1 -15 4 -15 6 0 10 7 10 15 0 8 -2 15 -4 15 -2 0
-6 -7 -10 -15z"/>
<path d="M976 3147 c3 -10 9 -15 12 -12 3 3 0 11 -7 18 -10 9 -11 8 -5 -6z"/>
<path d="M4134 3148 c-11 -17 -12 -48 -3 -53 4 -3 6 6 4 20 -1 15 4 29 14 35
9 5 11 10 4 10 -6 0 -15 -6 -19 -12z"/>
<path d="M253 3130 c1 -11 4 -20 8 -20 10 0 19 27 12 34 -12 12 -22 5 -20 -14z"/>
<path d="M6153 3143 c4 -3 -1 -12 -11 -19 -13 -9 -19 -9 -25 -1 -5 8 -7 4 -5
-8 2 -14 -2 -20 -16 -18 -13 1 -15 -2 -7 -10 7 -7 15 -6 26 3 8 7 15 9 15 4 1
-12 40 35 40 47 0 5 -5 9 -12 9 -6 0 -8 -3 -5 -7z"/>
<path d="M1113 3125 c0 -8 4 -15 9 -15 4 0 8 4 8 9 0 6 -4 12 -8 15 -5 3 -9
-1 -9 -9z"/>
<path d="M505 3120 c-7 -11 22 -26 32 -16 4 3 -2 6 -13 6 -16 0 -17 2 -4 10 9
6 10 10 3 10 -6 0 -15 -5 -18 -10z"/>
<path d="M5380 3120 c20 -13 33 -13 25 0 -3 6 -14 10 -23 10 -15 0 -15 -2 -2
-10z"/>
<path d="M2423 3113 c4 -6 2 -13 -5 -15 -8 -3 -6 -6 4 -10 17 -7 19 15 3 29
-4 4 -5 3 -2 -4z"/>
<path d="M6313 3105 c0 -8 4 -12 9 -9 5 3 6 10 3 15 -9 13 -12 11 -12 -6z"/>
<path d="M3230 3099 c0 -5 -5 -7 -11 -3 -8 4 -8 0 0 -15 7 -11 17 -21 24 -20
9 0 9 2 0 6 -7 2 -13 9 -13 14 0 6 4 7 10 4 6 -3 7 1 4 9 -7 18 -14 21 -14 5z"/>
<path d="M5373 3090 c1 -10 7 -22 13 -24 7 -3 10 3 7 15 -7 27 -22 34 -20 9z"/>
<path d="M997 3083 c3 -7 6 -13 8 -13 2 0 5 6 8 13 3 8 -1 14 -8 14 -7 0 -11
-6 -8 -14z"/>
<path d="M1100 3091 c0 -6 4 -13 10 -16 6 -3 7 1 4 9 -7 18 -14 21 -14 7z"/>
<path d="M1950 3086 c0 -2 7 -7 16 -10 8 -3 12 -2 9 4 -6 10 -25 14 -25 6z"/>
<path d="M2822 3086 c4 -5 2 -16 -5 -24 -10 -13 -9 -14 2 -7 11 6 13 4 8 -11
-6 -16 -5 -17 5 -4 16 20 36 19 48 0 5 -8 10 -10 10 -4 0 6 -9 19 -20 29 -11
10 -20 15 -20 10 0 -4 -8 -1 -17 6 -10 7 -15 9 -11 5z"/>
<path d="M5875 3082 c-7 -7 15 -32 29 -32 6 0 4 5 -4 10 -10 6 -11 10 -2 10 6
0 12 4 12 8 0 9 -27 12 -35 4z"/>
<path d="M6060 3082 c0 -7 -6 -12 -13 -12 -7 0 -18 -10 -26 -22 -14 -23 -14
-23 8 -4 11 11 21 15 21 10 0 -5 5 -1 11 9 6 10 8 21 5 24 -3 4 -6 1 -6 -5z"/>
<path d="M3475 3071 c-3 -5 0 -13 6 -17 8 -5 9 -3 4 6 -6 10 -4 12 9 7 10 -4
15 -3 11 3 -8 13 -22 13 -30 1z"/>
<path d="M4250 3071 c0 -5 5 -13 10 -16 6 -3 10 -2 10 4 0 5 -4 13 -10 16 -5
3 -10 2 -10 -4z"/>
<path d="M254 3050 c0 -13 4 -16 10 -10 7 7 7 13 0 20 -6 6 -10 3 -10 -10z"/>
<path d="M1045 3059 c-4 -6 -4 -13 -1 -16 3 -4 6 -1 6 6 0 7 5 9 12 5 7 -4 8
-3 4 4 -9 15 -13 15 -21 1z"/>
<path d="M2200 3060 c-13 -8 -12 -10 3 -10 9 0 17 5 17 10 0 12 -1 12 -20 0z"/>
<path d="M4957 3063 c-3 -5 4 -15 16 -23 21 -12 21 -12 7 6 -8 10 -15 20 -16
22 -1 2 -4 -1 -7 -5z"/>
<path d="M5657 3044 c17 -26 17 -27 -7 -20 -21 6 -22 5 -7 -4 26 -16 38 -4 25
25 -6 14 -15 25 -20 25 -5 0 -1 -12 9 -26z"/>
<path d="M711 3044 c0 -11 3 -14 6 -6 3 7 2 16 -1 19 -3 4 -6 -2 -5 -13z"/>
<path d="M4806 3051 c-4 -5 -2 -12 4 -16 6 -4 7 -11 4 -17 -5 -8 -1 -9 10 -5
13 5 17 3 13 -6 -3 -8 -2 -20 3 -27 5 -7 7 2 7 23 -1 26 -5 33 -16 29 -9 -3
-12 -1 -7 6 3 6 2 13 -3 16 -5 4 -12 2 -15 -3z"/>
<path d="M5995 3049 c-4 -6 -5 -12 -2 -15 2 -3 7 2 10 11 7 17 1 20 -8 4z"/>
<path d="M1305 3037 c4 -9 15 -19 25 -22 13 -4 17 -12 13 -23 -3 -9 -3 -14 1
-11 11 10 16 50 5 43 -6 -3 -19 2 -30 12 -17 16 -19 16 -14 1z"/>
<path d="M1690 3042 c0 -5 7 -9 15 -9 8 0 12 4 9 9 -3 4 -9 8 -15 8 -5 0 -9
-4 -9 -8z"/>
<path d="M1750 3041 c0 -5 7 -12 16 -15 14 -5 15 -4 4 9 -14 17 -20 19 -20 6z"/>
<path d="M2570 3038 c0 -6 3 -8 7 -5 3 4 11 2 18 -3 8 -7 12 -6 12 3 0 7 -9
14 -19 14 -10 1 -18 -3 -18 -9z"/>
<path d="M4465 3031 c-6 -11 9 -23 19 -14 9 9 7 23 -3 23 -6 0 -12 -4 -16 -9z"/>
<path d="M4946 3032 c-3 -5 1 -18 9 -28 13 -17 14 -17 9 -1 -5 14 -2 16 12 11
20 -8 19 -6 -8 14 -9 7 -19 9 -22 4z"/>
<path d="M1623 3009 c-2 -23 3 -25 10 -4 4 8 3 16 -1 19 -4 3 -9 -4 -9 -15z"/>
<path d="M1726 3022 c-3 -5 1 -9 9 -9 8 0 12 4 9 9 -3 4 -7 8 -9 8 -2 0 -6 -4
-9 -8z"/>
<path d="M1114 3013 c15 -4 16 -7 5 -14 -8 -5 -9 -9 -3 -9 6 0 16 6 22 13 8
10 5 13 -16 14 -17 0 -20 -1 -8 -4z"/>
<path d="M1585 3011 c-6 -11 9 -23 19 -14 9 9 7 23 -3 23 -6 0 -12 -4 -16 -9z"/>
<path d="M1705 3000 c10 -11 20 -20 23 -20 3 0 -3 9 -13 20 -10 11 -20 20 -23
20 -3 0 3 -9 13 -20z"/>
<path d="M3230 3011 c0 -6 4 -12 8 -15 5 -3 9 1 9 9 0 8 -4 15 -9 15 -4 0 -8
-4 -8 -9z"/>
<path d="M1892 3001 c0 -3 -1 -8 -2 -11 -7 -19 -7 -40 1 -40 5 0 10 5 10 10 3
20 4 25 11 36 4 6 1 11 -7 11 -8 0 -14 -3 -13 -6z"/>
<path d="M3010 3000 c0 -5 5 -10 11 -10 5 0 7 5 4 10 -3 6 -8 10 -11 10 -2 0
-4 -4 -4 -10z"/>
<path d="M3496 2997 c3 -10 9 -15 12 -12 3 3 0 11 -7 18 -10 9 -11 8 -5 -6z"/>
<path d="M3985 2999 c-4 -6 -5 -12 -2 -15 2 -3 7 2 10 11 7 17 1 20 -8 4z"/>
<path d="M4650 2980 c0 -5 5 -10 11 -10 5 0 7 5 4 10 -3 6 -8 10 -11 10 -2 0
-4 -4 -4 -10z"/>
<path d="M4115 2969 c-4 -6 -5 -12 -2 -15 2 -3 7 2 10 11 7 17 1 20 -8 4z"/>
<path d="M6125 2970 c-3 -5 -3 -10 2 -10 4 0 1 -5 -7 -10 -9 -6 -10 -10 -3
-10 6 0 15 5 18 10 4 6 10 8 15 5 5 -3 12 0 16 7 4 7 4 10 -1 6 -4 -4 -14 -3
-21 3 -8 7 -14 7 -19 -1z"/>
<path d="M1070 2966 c0 -2 7 -9 15 -16 13 -11 14 -10 9 4 -5 14 -24 23 -24 12z"/>
<path d="M1545 2960 c3 -5 8 -10 11 -10 2 0 4 5 4 10 0 6 -5 10 -11 10 -5 0
-7 -4 -4 -10z"/>
<path d="M3115 2960 c-4 -6 1 -7 11 -3 13 5 15 3 9 -7 -5 -9 -4 -11 4 -6 6 4
9 12 6 17 -8 12 -22 12 -30 -1z"/>
<path d="M4680 2966 c0 -2 7 -7 16 -10 8 -3 12 -2 9 4 -6 10 -25 14 -25 6z"/>
<path d="M5054 2946 c0 -14 6 -22 14 -19 9 4 9 9 2 18 -5 6 -7 15 -3 18 3 4 2
7 -4 7 -6 0 -10 -11 -9 -24z"/>
<path d="M875 2950 c-3 -5 -2 -17 3 -26 8 -14 10 -12 10 9 0 29 -3 33 -13 17z"/>
<path d="M3190 2950 c0 -5 5 -10 11 -10 5 0 7 5 4 10 -3 6 -8 10 -11 10 -2 0
-4 -4 -4 -10z"/>
<path d="M4286 2951 c-4 -5 -2 -12 3 -15 5 -4 12 -2 15 3 4 5 2 12 -3 15 -5 4
-12 2 -15 -3z"/>
<path d="M525 2940 c-4 -6 -10 -8 -14 -6 -3 3 -7 -4 -7 -15 0 -24 0 -24 20 6
9 14 14 25 12 25 -3 0 -8 -5 -11 -10z"/>
<path d="M1494 2939 c-3 -6 -3 -13 0 -16 3 -4 6 -1 6 5 0 6 7 9 15 6 8 -4 15
-4 15 -1 0 11 -30 16 -36 6z"/>
<path d="M2235 2940 c-3 -5 -1 -10 4 -10 6 0 11 5 11 10 0 6 -2 10 -4 10 -3 0
-8 -4 -11 -10z"/>
<path d="M1380 2931 c0 -6 4 -13 10 -16 6 -3 7 1 4 9 -7 18 -14 21 -14 7z"/>
<path d="M3660 2936 c0 -2 8 -10 18 -17 15 -13 16 -12 3 4 -13 16 -21 21 -21
13z"/>
<path d="M3525 2920 c-4 -6 -11 -8 -16 -5 -5 3 -6 -1 -3 -9 3 -9 11 -16 17
-16 6 0 7 3 4 7 -4 3 -2 12 4 20 6 7 9 13 6 13 -3 0 -9 -5 -12 -10z"/>
<path d="M4482 2918 c-16 -16 -15 -25 2 -25 8 0 12 6 8 15 -4 11 -1 13 8 7 9
-5 11 -4 6 3 -9 15 -9 15 -24 0z"/>
<path d="M5668 2923 c7 -3 16 -2 19 1 4 3 -2 6 -13 5 -11 0 -14 -3 -6 -6z"/>
<path d="M908 2913 c7 -3 16 -2 19 1 4 3 -2 6 -13 5 -11 0 -14 -3 -6 -6z"/>
<path d="M1853 2903 c0 -17 5 -16 23 1 12 13 12 15 -4 13 -10 0 -19 -7 -19
-14z"/>
<path d="M530 2892 c0 -7 -7 -9 -17 -5 -15 5 -16 3 -5 -8 9 -10 15 -10 24 -1
6 6 9 15 5 19 -4 3 -7 1 -7 -5z"/>
<path d="M1730 2880 c0 -5 5 -10 11 -10 5 0 7 5 4 10 -3 6 -8 10 -11 10 -2 0
-4 -4 -4 -10z"/>
<path d="M4296 2873 c-6 -14 -5 -15 5 -6 7 7 10 15 7 18 -3 3 -9 -2 -12 -12z"/>
<path d="M281 2862 c9 -4 15 -15 14 -24 -2 -10 0 -17 3 -17 20 3 25 -2 12 -11
-12 -8 -12 -10 -1 -10 11 0 11 -3 0 -17 -13 -16 -12 -17 3 -5 18 14 18 33 1
53 -6 8 -11 19 -12 24 0 6 -8 11 -18 12 -15 2 -16 2 -2 -5z"/>
<path d="M1830 2861 c0 -6 4 -13 10 -16 6 -3 7 1 4 9 -7 18 -14 21 -14 7z"/>
<path d="M5339 2853 c-13 -17 -13 -17 6 -3 11 8 22 16 24 17 2 2 0 3 -6 3 -6
0 -17 -8 -24 -17z"/>
<path d="M1195 2850 c3 -5 8 -10 11 -10 2 0 4 5 4 10 0 6 -5 10 -11 10 -5 0
-7 -4 -4 -10z"/>
<path d="M4475 2850 c3 -5 8 -10 11 -10 2 0 4 5 4 10 0 6 -5 10 -11 10 -5 0
-7 -4 -4 -10z"/>
<path d="M1221 2834 c0 -11 3 -14 6 -6 3 7 2 16 -1 19 -3 4 -6 -2 -5 -13z"/>
<path d="M3508 2843 c7 -3 16 -2 19 1 4 3 -2 6 -13 5 -11 0 -14 -3 -6 -6z"/>
<path d="M5070 2840 c0 -5 5 -10 11 -10 5 0 7 5 4 10 -3 6 -8 10 -11 10 -2 0
-4 -4 -4 -10z"/>
<path d="M4310 2831 c0 -5 7 -12 16 -15 14 -5 15 -4 4 9 -14 17 -20 19 -20 6z"/>
<path d="M5096 2823 c-6 -14 -5 -15 5 -6 7 7 10 15 7 18 -3 3 -9 -2 -12 -12z"/>
<path d="M966 2822 c-3 -5 1 -9 9 -9 8 0 12 4 9 9 -3 4 -7 8 -9 8 -2 0 -6 -4
-9 -8z"/>
<path d="M533 2795 c0 -8 4 -12 9 -9 4 3 8 9 8 15 0 5 -4 9 -8 9 -5 0 -9 -7
-9 -15z"/>
<path d="M1030 2800 c0 -5 5 -10 11 -10 5 0 7 5 4 10 -3 6 -8 10 -11 10 -2 0
-4 -4 -4 -10z"/>
<path d="M2284 2794 c-18 -14 -18 -15 4 -4 12 6 22 13 22 15 0 8 -5 6 -26 -11z"/>
<path d="M5905 2783 c-32 -17 -45 -31 -44 -48 0 -5 3 -4 6 3 2 6 10 9 15 6 7
-4 8 -2 4 4 -4 6 6 18 24 27 16 8 30 18 30 20 0 7 -1 6 -35 -12z"/>
<path d="M3650 2783 c0 -4 5 -15 10 -23 8 -13 10 -13 10 2 0 9 -4 20 -10 23
-5 3 -10 3 -10 -2z"/>
<path d="M550 2770 c0 -5 5 -10 11 -10 5 0 7 5 4 10 -3 6 -8 10 -11 10 -2 0
-4 -4 -4 -10z"/>
<path d="M1230 2766 c0 -2 7 -9 15 -16 13 -11 14 -10 9 4 -5 14 -24 23 -24 12z"/>
<path d="M4499 2753 c-13 -16 -12 -17 4 -4 9 7 17 15 17 17 0 8 -8 3 -21 -13z"/>
<path d="M346 2733 c1 -16 3 -30 4 -33 1 -3 2 -9 1 -13 -1 -5 3 -6 8 -3 8 5 8
34 1 44 -2 1 -3 6 -4 11 -3 24 -13 18 -10 -6z"/>
<path d="M3510 2756 c0 -2 7 -7 16 -10 8 -3 12 -2 9 4 -6 10 -25 14 -25 6z"/>
<path d="M3636 2742 c-10 -16 9 -30 21 -17 10 10 9 14 -2 19 -8 3 -16 2 -19
-2z"/>
<path d="M4506 2725 c-9 -26 -7 -32 5 -12 6 10 9 21 6 23 -2 3 -7 -2 -11 -11z"/>
<path d="M3494 2718 c-3 -4 5 -5 17 -3 30 6 36 14 9 12 -12 -1 -24 -5 -26 -9z"/>
<path d="M1070 2706 c0 -2 7 -7 16 -10 8 -3 12 -2 9 4 -6 10 -25 14 -25 6z"/>
<path d="M3627 2699 c7 -7 15 -10 18 -7 3 3 -2 9 -12 12 -14 6 -15 5 -6 -5z"/>
<path d="M1135 2639 c1 -10 5 -22 10 -26 4 -5 5 -3 1 4 -3 6 1 13 9 15 13 2
13 5 -3 14 -16 10 -18 9 -17 -7z"/>
<path d="M4413 2635 c0 -8 4 -12 9 -9 5 3 6 10 3 15 -9 13 -12 11 -12 -6z"/>
<path d="M535 2631 c-3 -5 -2 -12 3 -15 5 -3 9 1 9 9 0 17 -3 19 -12 6z"/>
<path d="M364 2599 c-4 -8 -3 -9 5 -5 6 4 14 0 17 -8 8 -20 21 -21 21 -1 0 8
-3 13 -5 10 -3 -3 -11 0 -18 6 -8 7 -14 6 -20 -2z"/>
<path d="M5450 2599 c0 -5 -4 -7 -10 -4 -6 3 -7 -1 -4 -10 4 -9 7 -15 8 -13 1
2 8 11 15 21 9 11 10 17 2 17 -6 0 -11 -5 -11 -11z"/>
<path d="M1179 2592 c9 -7 10 -11 2 -15 -7 -4 -8 -5 0 -3 15 2 13 20 -3 24
-10 3 -10 2 1 -6z"/>
<path d="M496 2581 c-4 -5 -2 -12 3 -16 6 -3 7 -13 4 -23 -7 -18 -5 -17 15 9
10 13 9 19 -2 28 -9 8 -16 8 -20 2z"/>
<path d="M5645 2551 c-3 -5 -2 -12 3 -15 5 -3 9 1 9 9 0 17 -3 19 -12 6z"/>
<path d="M396 2518 c3 -5 10 -6 15 -3 13 9 11 12 -6 12 -8 0 -12 -4 -9 -9z"/>
<path d="M490 2501 c0 -6 4 -13 10 -16 6 -3 7 1 4 9 -7 18 -14 21 -14 7z"/>
<path d="M5630 2498 c0 -4 4 -8 9 -8 6 0 12 4 15 8 3 5 -1 9 -9 9 -8 0 -15 -4
-15 -9z"/>
<path d="M5600 2496 c0 -2 8 -10 18 -17 15 -13 16 -12 3 4 -13 16 -21 21 -21
13z"/>
<path d="M5539 2402 c-11 -14 -11 -15 0 -5 7 6 20 9 27 6 8 -3 14 -3 14 0 0
14 -30 14 -41 -1z"/>
<path d="M5187 2296 c-9 -7 -17 -17 -17 -21 0 -4 6 -3 13 3 6 6 15 11 20 11 4
1 7 4 8 7 2 12 -7 12 -24 0z"/>
<path d="M5438 2305 c-3 -6 0 -15 7 -22 10 -10 14 -9 19 3 3 8 2 13 -3 9 -5
-3 -11 0 -13 7 -3 7 -7 8 -10 3z"/>
<path d="M5101 2234 c0 -11 3 -14 6 -6 3 7 2 16 -1 19 -3 4 -6 -2 -5 -13z"/>
<path d="M5085 2200 c-3 -5 -1 -10 4 -10 6 0 11 5 11 10 0 6 -2 10 -4 10 -3 0
-8 -4 -11 -10z"/>
<path d="M5270 2190 c0 -6 7 -10 15 -10 8 0 15 2 15 4 0 2 -7 6 -15 10 -8 3
-15 1 -15 -4z"/>
</g>
</svg>
